<svg width="46" height="69" viewBox="0 0 46 69" fill="none" xmlns="http://www.w3.org/2000/svg">
<path d="M44.7923 20.9017C44.7923 31.6821 34.9407 40.5186 22.6608 40.5186C10.3809 40.5186 0.529297 31.6821 0.529297 20.9017C0.529297 10.1213 10.3809 1.28479 22.6608 1.28479C34.9407 1.28479 44.7923 10.1213 44.7923 20.9017Z" stroke="black"/>
<path d="M21.8226 15.5531C18.8771 15.5531 16.4893 17.941 16.4893 20.8865C16.4893 23.832 18.8771 26.2198 21.8226 26.2198C24.7681 26.2198 27.1559 23.832 27.1559 20.8865C27.1559 17.941 24.7681 15.5531 21.8226 15.5531ZM21.1155 67.7253C21.506 68.1158 22.1392 68.1158 22.5297 67.7253L28.8937 61.3613C29.2842 60.9708 29.2842 60.3376 28.8937 59.9471C28.5031 59.5566 27.87 59.5566 27.4795 59.9471L21.8226 65.604L16.1657 59.9471C15.7752 59.5566 15.1421 59.5566 14.7515 59.9471C14.361 60.3376 14.361 60.9708 14.7515 61.3613L21.1155 67.7253ZM20.8226 20.8865L20.8226 67.0182H22.8226L22.8226 20.8865H20.8226Z" fill="black"/>
</svg>
