<svg width="63" height="35" viewBox="0 0 63 35" fill="none" xmlns="http://www.w3.org/2000/svg">
<path d="M63 0H17.5C7.83502 0 0 7.83502 0 17.5C0 27.165 7.83502 35 17.5 35H63V0Z" fill="#F19932"/>
<path d="M19.2929 19.4571C18.9024 19.0666 18.9024 18.4334 19.2929 18.0429L25.6569 11.6789C26.0474 11.2884 26.6805 11.2884 27.0711 11.6789C27.4616 12.0695 27.4616 12.7026 27.0711 13.0931L21.4142 18.75L27.0711 24.4069C27.4616 24.7974 27.4616 25.4305 27.0711 25.8211C26.6805 26.2116 26.0474 26.2116 25.6569 25.8211L19.2929 19.4571ZM52 19.75L20 19.75L20 17.75L52 17.75L52 19.75Z" fill="#FFF8F8"/>
</svg>
