<svg width="63" height="35" viewBox="0 0 63 35" fill="none" xmlns="http://www.w3.org/2000/svg">
<path d="M0 0H45.5C55.165 0 63 7.83502 63 17.5C63 27.165 55.165 35 45.5 35H0V0Z" fill="#F19932"/>
<path d="M43.7071 19.4571C44.0976 19.0666 44.0976 18.4334 43.7071 18.0429L37.3431 11.6789C36.9526 11.2884 36.3195 11.2884 35.9289 11.6789C35.5384 12.0695 35.5384 12.7026 35.9289 13.0931L41.5858 18.75L35.9289 24.4069C35.5384 24.7974 35.5384 25.4305 35.9289 25.8211C36.3195 26.2116 36.9526 26.2116 37.3431 25.8211L43.7071 19.4571ZM11 19.75L43 19.75L43 17.75L11 17.75L11 19.75Z" fill="#FFF8F8"/>
</svg>
