<svg width="264" height="53" viewBox="0 0 264 53" fill="none" xmlns="http://www.w3.org/2000/svg">
<path d="M49.311 22.3076C48.8627 24.9793 45.6766 21.0096 45.0781 22.6193C44.4794 24.2292 45.4721 26.4565 44.4683 28.5104C44.0688 27.6002 43.6059 26.7186 43.0821 25.872C40.7399 22.0667 37.3375 19.1237 33.2427 17.3612C30.5512 16.2019 27.6873 15.6142 24.7309 15.6142C22.5095 15.6142 20.3404 15.9461 18.2573 16.6028C18.2685 16.5829 18.2791 16.5627 18.2904 16.5428C18.3896 16.3719 18.4951 16.2045 18.598 16.0358C18.5946 16.0378 18.591 16.0387 18.5876 16.0406C20.2222 13.3538 22.4955 11.046 25.1751 9.39655C26.5895 8.52161 28.1077 7.83147 29.6968 7.3398C29.6975 7.34051 29.6983 7.34095 29.699 7.34166C29.7671 7.32063 29.8356 7.30076 29.9037 7.27982C29.9885 7.25465 30.0734 7.23009 30.1586 7.20589C35.0151 5.7884 39.1561 5.41767 40.4028 7.20589C40.9536 7.99603 40.2247 8.91629 38.4876 8.20512C36.9638 7.58122 35.6123 8.63159 36.0837 9.35053C36.529 10.0295 37.9858 10.0129 38.9106 9.98936C39.5763 9.97258 40.2353 10.0396 40.8925 10.6361C41.9778 11.6213 39.5567 12.2001 40.3581 13.2687C41.1596 14.3374 46.8144 10.0183 48.9516 13.7586C51.0889 17.4988 42.9851 13.7173 43.1187 16.4301C43.2523 19.1431 45.4786 20.552 46.8144 19.6264C48.1504 18.7009 49.7593 19.636 49.311 22.3076ZM47.7941 8.37092C48.462 6.99053 43.5641 5.38764 42.9853 6.9461C42.2449 8.93961 47.1262 9.75121 47.7941 8.37092Z" fill="#F19932"/>
<path d="M43.8374 31.7404C45.2113 36.3779 43.831 38.8713 42.9293 38.5374C42.0277 38.2033 42.7401 37.0123 42.7624 36.5002C42.7846 35.9882 41.8274 35.7545 41.6603 37.0234C41.4934 38.2925 41.8384 40.1626 42.0834 40.7191C42.3282 41.2757 42.562 42.7117 40.8478 42.8229C39.1335 42.9343 41.115 39.7563 40.6029 39.3277C40.0908 38.8991 38.1706 40.8194 38.1205 42.8259C38.0705 44.8322 37.3024 45.7173 36.384 45.2997C35.4657 44.8823 36.5176 43.7302 36.4843 43.2461C36.4509 42.7617 32.0094 44.0141 30.9073 47.7543C29.8053 51.4944 26.5104 54.8117 24.3286 51.873C22.1469 48.9342 27.9353 48.1773 27.2674 46.9751C26.5995 45.7728 23.7711 46.916 22.536 46.0551C23.4456 45.6557 24.3267 45.1927 25.1733 44.6691C28.9795 42.3262 31.9226 38.9227 33.6839 34.8265C34.8433 32.135 35.4311 29.2711 35.4311 26.3145C35.4311 24.0897 35.0982 21.9172 34.4393 19.8312C37.3853 21.4797 39.8515 23.8446 41.6452 26.7585C42.6039 28.3083 43.3409 29.9833 43.8374 31.7404ZM31.2147 36.023C29.1287 36.6819 26.9561 37.0148 24.7307 37.0148C21.7739 37.0148 18.9101 36.4271 16.2187 35.2678C15.887 35.1251 15.5615 34.9719 15.2394 34.8134C15.2311 34.8093 15.2228 34.8054 15.2146 34.8014C15.1484 34.7686 15.0813 34.7376 15.0155 34.7043C15.0159 34.7027 15.0156 34.701 15.016 34.6994C11.4564 32.9044 8.48481 30.183 6.37611 26.757C5.92217 26.0233 5.51672 25.2622 5.15588 24.4803C5.10031 24.3603 5.04316 24.2409 4.98999 24.1199C2.91636 27.9026 6.36233 31.7917 5.42732 32.5598C4.89529 32.9967 4.02468 30.0218 2.355 30.5894C0.685326 31.1572 1.62033 32.7934 4.59249 34.3964C7.56455 35.9994 9.8159 39.4267 9.6796 40.1626C9.5433 40.8985 7.09709 38.9159 7.63142 40.6969C8.16575 42.478 12.5738 42.4334 14.0432 43.7246C15.5125 45.0158 12.2621 46.3961 9.99133 44.259C7.72046 42.1217 3.75765 43.0121 5.40515 45.4245C7.05257 47.837 10.8373 47.821 19.308 45.4245C21.0634 44.9277 22.7372 44.1908 24.2867 43.2324C27.2018 41.438 29.5667 38.9705 31.2147 36.023ZM7.81268 25.8704C9.60699 28.7854 12.0746 31.1505 15.0222 32.7986C14.3634 30.7124 14.0303 28.5394 14.0303 26.3144C14.0303 23.358 14.6181 20.4941 15.7772 17.8024C17.5409 13.7048 20.4841 10.3013 24.2882 7.9598C25.1348 7.43616 26.0157 6.97312 26.9253 6.57394C25.1138 5.73425 21.7239 5.94413 22.759 4.64174C23.7943 3.33935 22.926 2.204 22.1245 2.73816C21.323 3.27248 21.5902 3.97376 20.2878 5.77718C18.9854 7.58041 14.0096 8.74924 13.7091 6.4539C13.4085 4.15882 15.4456 0 13.9762 0C12.5069 0 11.505 1.50273 12.0727 5.6437C12.6404 9.78459 10.6702 11.9552 10.2026 11.6213C9.73507 11.2874 10.57 9.78459 9.43456 9.78459C8.29913 9.78459 8.29913 11.3876 8.80007 12.8569C9.30101 14.3263 7.46429 16.1296 6.76301 14.9208C6.06173 13.7121 8.34374 8.45995 5.6206 8.94967C2.89746 9.43956 4.0692 14.9163 5.6206 20.892C6.1173 22.6475 6.85435 24.3213 7.81268 25.8704ZM39.3562 46.9529C40.0574 48.3554 41.6604 45.7506 41.1929 44.5484C40.7785 43.4829 38.6549 45.5502 39.3562 46.9529ZM3.30406 23.1038C3.8754 20.8899 3.20503 19.0314 0.927094 19.8049C-1.35085 20.5782 1.20764 22.5261 1.83498 23.1038C2.46224 23.6816 3.172 23.6156 3.30406 23.1038Z" fill="#F19932"/>
<path d="M75.1151 23.2257L75.1427 27.3443L75.0183 33.0417C75.0368 33.1241 75.069 33.1653 75.1151 33.1653C75.1611 33.1653 75.1934 33.147 75.2118 33.1104C75.6542 32.488 76.2026 32.1768 76.857 32.1768C77.5113 32.1768 77.8385 32.3095 77.8385 32.575C77.8385 33.4078 77.9998 34.0531 78.3224 34.5107C78.6357 34.9592 79.0873 35.1834 79.6772 35.1834C80.267 35.1834 80.8292 34.7853 81.3638 33.989C81.9076 33.2019 82.1794 32.1494 82.1794 30.8314C82.1794 30.3921 82.0919 29.8658 81.9168 29.2526C81.5665 28.017 80.903 27.1933 79.926 26.7815C79.2164 26.4977 78.0643 26.3558 76.4699 26.3558C76.2948 26.3558 76.2072 26.2323 76.2072 25.9852C76.2072 24.7588 76.4284 24.1227 76.8708 24.0769C77.4699 24.0769 78.1012 23.9213 78.7648 23.6101C80.0919 22.9969 80.7555 21.7339 80.7555 19.821C80.7555 17.7617 79.562 16.732 77.1749 16.732L76.1381 16.8007C75.7418 16.883 75.5206 17.0478 75.4745 17.2949V17.391C75.2349 18.2696 75.1151 20.2145 75.1151 23.2257ZM70.235 38.5058L70.3041 38.1488C70.5253 37.7553 70.7143 36.1444 70.871 33.3163C71.0276 30.4974 71.1059 27.8614 71.1059 25.4086C71.1059 22.9649 71.0553 21.0017 70.9539 19.5189C70.8525 18.0362 70.5806 16.9654 70.1383 16.3064C70.0461 16.1966 70 16.0639 70 15.9083C70 15.7527 70.1336 15.62 70.4009 15.5102C72.2165 14.8054 74.6819 14.4531 77.797 14.4531C78.5712 14.4531 79.4145 14.5583 80.3269 14.7688C81.2302 14.9793 81.9767 15.2356 82.5665 15.5376C83.1471 15.8488 83.6771 16.3247 84.1563 16.9654C84.6356 17.5969 84.9075 18.352 84.972 19.2307C84.972 22.4157 83.6448 24.2508 80.9905 24.7359C80.8523 24.7816 80.7831 24.832 80.7831 24.8869C80.7831 24.9418 80.8384 25.0013 80.949 25.0654C82.3223 25.285 83.4743 25.8342 84.4052 26.7128C84.866 27.1338 85.2853 27.7836 85.6632 28.6623C86.0411 29.5409 86.23 30.5477 86.23 31.6826C86.23 33.1561 85.7968 34.5519 84.9305 35.8699C84.2301 36.9498 83.2025 37.7186 81.8477 38.1763C81.1011 38.4417 80.2624 38.5744 79.3316 38.5744C77.0091 38.5744 75.539 37.8376 74.9215 36.3641C74.8939 36.3 74.857 36.268 74.8109 36.268L74.6865 36.4053C74.2165 37.9429 72.8893 38.7437 70.7051 38.8078C70.3917 38.8078 70.235 38.7071 70.235 38.5058ZM99.2666 23.3905C98.8703 25.7609 98.6721 28.7813 98.6721 32.4514C98.6721 35.1514 98.7827 36.927 99.0039 37.7781L99.1421 38.2175C99.1421 38.5012 98.8979 38.6431 98.4094 38.6431C96.7044 38.6431 95.7321 38.1717 95.4925 37.229C95.4648 37.1192 95.4141 37.0642 95.3404 37.0642C95.2574 37.0642 95.1837 37.1054 95.1192 37.1878C94.4372 38.0939 93.3773 38.5469 91.9396 38.5469C91.1377 38.5469 90.3083 38.3456 89.4512 37.9429C88.9166 37.7049 88.4834 37.2839 88.1517 36.6798C87.8199 36.0758 87.6539 35.3344 87.6539 34.4558L88.1517 27.2345C88.1517 25.7243 87.9996 24.6489 87.6954 24.0082C87.5848 23.7703 87.5295 23.6193 87.5295 23.5552C87.5295 23.4179 87.5848 23.3264 87.6954 23.2806C88.0456 23.1708 88.4973 23.1159 89.0502 23.1159C91.1977 23.1159 92.2713 23.9945 92.2713 25.7518C92.2713 26.3009 92.0456 27.5548 91.594 29.5135C91.1331 31.4721 90.9027 32.8633 90.9027 33.687C90.9027 34.5107 91.087 35.1422 91.4557 35.5815C91.8244 36.0209 92.3313 36.2405 92.9764 36.2405C93.6308 36.2405 94.1469 36.0071 94.5248 35.5404C94.9026 35.0827 95.1238 34.6205 95.1883 34.1538L95.2851 33.4673C95.3773 32.6985 95.4233 31.3485 95.4233 29.4174C95.4233 27.4862 95.3635 26.2597 95.2437 25.7381C95.1146 25.2255 95.0501 24.9006 95.0501 24.7633C95.0501 24.2142 95.4925 23.784 96.3772 23.4728C97.262 23.1525 98.0592 22.9923 98.7689 22.9923C99.1007 22.9923 99.2666 23.125 99.2666 23.3905ZM111.142 26.7128L110.976 29.2114L111.114 30.3646C111.114 30.7857 110.718 30.9962 109.925 30.9962C108.303 30.9962 107.492 30.3921 107.492 29.184C107.492 28.9003 107.571 28.5067 107.727 28.0033C107.884 27.4908 107.962 27.0514 107.962 26.6853C107.962 26.3101 107.852 25.9852 107.63 25.7106C107.409 25.436 107.087 25.2987 106.663 25.2987C106.248 25.2987 105.889 25.4452 105.584 25.7381C105.289 26.0401 105.11 26.3421 105.045 26.6442L104.907 27.1109C104.778 27.7882 104.713 28.9231 104.713 30.5156C104.713 32.1082 104.737 33.3621 104.783 34.2773C104.819 35.1834 104.861 35.8104 104.907 36.1581C104.953 36.4968 104.976 36.6981 104.976 36.7622C104.976 37.3114 104.635 37.7553 103.953 38.0939C103.262 38.4325 102.575 38.6019 101.893 38.6019C101.202 38.6019 100.856 38.46 100.856 38.1763L101.022 37.1604C101.336 35.2475 101.492 32.7534 101.492 29.6782C101.492 26.603 101.382 24.5162 101.161 23.4179C101.161 23.1525 101.391 23.0198 101.852 23.0198C103.05 23.0198 103.847 23.4271 104.243 24.2416C104.271 24.3332 104.313 24.3789 104.368 24.3789C104.423 24.3789 104.571 24.2782 104.81 24.0769C105.538 23.482 106.4 23.1845 107.395 23.1845C108.013 23.1845 108.635 23.3081 109.262 23.5552C110.515 24.0586 111.142 25.1111 111.142 26.7128ZM120.142 38.2449C120.446 36.7073 120.598 34.5473 120.598 31.765C120.598 28.9918 120.589 27.3535 120.57 26.8501C120.552 26.3375 120.395 25.9303 120.1 25.6282C119.814 25.317 119.566 25.1386 119.354 25.0928C119.151 25.0562 118.861 25.0379 118.483 25.0379C118.105 25.0379 117.741 25.2072 117.391 25.5459C117.031 25.8845 116.819 26.2277 116.755 26.5755L116.616 27.1109C116.552 27.7699 116.52 29.2297 116.52 31.4904C116.52 33.7511 116.57 35.1743 116.672 35.76C116.773 36.3366 116.824 36.7256 116.824 36.927C116.824 37.1283 116.736 37.3251 116.561 37.5173C115.805 38.3136 114.741 38.7117 113.368 38.7117C112.879 38.7117 112.635 38.5653 112.635 38.2724C113.077 35.6365 113.299 32.2775 113.299 28.1955C113.299 26.6762 113.266 25.6557 113.202 25.134L113.077 24.0769C113.05 23.8389 113.004 23.5735 112.939 23.2806C112.939 23.0244 113.28 22.8962 113.962 22.8962C114.985 22.8962 115.662 23.2669 115.994 24.0082C116.013 24.0998 116.054 24.1455 116.119 24.1455C116.192 24.1455 116.349 24.0586 116.589 23.8847C117.317 23.3081 118.303 23.0198 119.547 23.0198C120.248 23.0198 120.944 23.1525 121.635 23.4179C122.317 23.6833 122.791 24.0357 123.059 24.475C123.077 24.5208 123.109 24.5437 123.155 24.5437C123.201 24.5437 123.271 24.4979 123.363 24.4064C124.284 23.482 125.487 23.0198 126.971 23.0198C128.943 23.0198 130.293 23.7245 131.022 25.134C131.289 25.6831 131.423 26.3742 131.423 27.207C131.423 28.0399 131.353 29.2252 131.215 30.7628C131.086 32.3004 131.022 33.4765 131.022 34.291C131.022 35.1056 131.105 35.8424 131.27 36.5014C131.436 37.1603 131.602 37.6317 131.768 37.9154C131.934 38.1992 132.017 38.3639 132.017 38.4097C132.017 38.6934 131.708 38.8353 131.091 38.8353C129.561 38.8353 128.496 38.5287 127.897 37.9154C127.307 37.3022 127.012 36.4968 127.012 35.4992C127.012 34.4924 127.215 33.1378 127.621 31.4355C128.026 29.7331 128.229 28.4563 128.229 27.6052C128.229 25.8662 127.524 24.9967 126.114 24.9967C125.515 24.9967 125.04 25.1752 124.69 25.5321C124.331 25.8799 124.119 26.2277 124.054 26.5755L123.985 27.1109C123.902 28.1177 123.86 29.335 123.86 30.7628C123.86 32.1906 123.879 33.3072 123.916 34.1126C123.962 34.9088 124.008 35.5358 124.054 35.9934C124.1 36.4419 124.123 36.7073 124.123 36.7897C124.123 37.412 123.736 37.888 122.962 38.2175C122.188 38.5469 121.437 38.7117 120.708 38.7117C120.331 38.7117 120.142 38.5561 120.142 38.2449ZM144.196 28.168L144.127 32.3827C144.127 35.3024 144.45 37.0597 145.095 37.6546C145.178 37.737 145.219 37.8331 145.219 37.9429C145.219 38.2724 144.505 38.4371 143.077 38.4371C141.657 38.4371 140.902 38.0207 140.809 37.1878C140.791 36.9956 140.782 36.5883 140.782 35.9659L140.906 30.6941C140.906 30.5477 140.819 30.4745 140.643 30.4745C139.584 30.4745 138.588 30.7673 137.657 31.3531C136.727 31.948 136.261 32.7077 136.261 33.6321C136.261 34.1171 136.395 34.5244 136.662 34.8539C136.929 35.1834 137.256 35.3482 137.644 35.3482C138.031 35.3482 138.349 35.2704 138.597 35.1148C138.856 34.9592 139.008 34.8722 139.054 34.8539C139.432 34.8997 139.62 35.2887 139.62 36.0209C139.62 36.7531 139.275 37.348 138.584 37.8056C137.902 38.2541 137.183 38.4783 136.427 38.4783C135.68 38.4783 135.035 38.3456 134.492 38.0802C133.948 37.8148 133.556 37.5173 133.316 37.1878C133.068 36.8583 132.865 36.4876 132.708 36.0758C132.561 35.5632 132.487 35.1239 132.487 34.7578C132.487 33.2202 132.971 31.9892 133.939 31.0648C134.916 30.1404 136.164 29.4814 137.685 29.0879C139.703 28.6943 140.754 28.3328 140.837 28.0033C140.911 27.7562 140.948 27.3489 140.948 26.7815C140.948 25.6191 140.349 25.0379 139.15 25.0379C138.644 25.0379 138.192 25.1935 137.796 25.5047C137.39 25.825 137.187 26.2277 137.187 26.7128L137.395 27.5091C137.349 27.8752 136.948 28.0948 136.192 28.168L135.833 28.1955C135.169 28.1955 134.644 28.0308 134.257 27.7013C133.869 27.3718 133.676 26.9325 133.676 26.3833C133.676 26.0355 133.791 25.6465 134.022 25.2164C134.252 24.7862 134.547 24.4384 134.906 24.173C135.256 23.9076 135.805 23.6742 136.551 23.4728C137.289 23.2623 137.998 23.1571 138.68 23.1571C139.372 23.1571 139.906 23.1799 140.284 23.2257C140.653 23.2623 141.164 23.363 141.819 23.5277C142.473 23.6925 143.017 24.0082 143.45 24.475C143.883 24.9326 144.113 25.4223 144.141 25.944C144.178 26.4565 144.196 27.1979 144.196 28.168ZM160.814 19.162C159.072 21.3403 157.814 23.5186 157.039 25.6969H157.067C160.145 25.6969 161.91 25.7014 162.362 25.7106C162.813 25.7197 163.062 25.7014 163.108 25.6557C163.154 25.6099 163.187 25.555 163.205 25.4909C162.827 22.791 162.528 20.9513 162.307 19.972C162.085 18.9927 161.864 18.503 161.643 18.503C161.422 18.503 161.145 18.7227 160.814 19.162ZM157.869 34.6892L158.588 34.5519C158.809 34.5519 158.92 34.6755 158.92 34.9226C158.92 35.6914 158.767 36.3366 158.463 36.8583C158.15 37.3892 157.763 37.7644 157.302 37.9841C156.546 38.3593 155.906 38.5469 155.38 38.5469C154.357 38.5469 153.592 38.1671 153.086 37.4075C152.579 36.6478 152.325 35.5037 152.325 33.9753C152.325 32.4468 152.745 30.4653 153.583 28.0307H151.662C151.413 28.0307 151.288 27.9118 151.288 27.6738C151.288 27.4267 151.477 27.0331 151.855 26.4931C152.233 25.9623 152.634 25.6969 153.058 25.6969H154.551C156.118 22.2189 157.961 19.2169 160.081 16.6908C160.634 16.0319 161.316 15.4186 162.127 14.8512C162.938 14.2837 163.565 14 164.007 14C164.449 14 164.781 14.1968 165.002 14.5903C165.574 15.5147 166.247 18.8874 167.021 24.7084C167.288 27.207 167.749 29.7926 168.403 32.4651C169.048 35.1285 169.647 36.6799 170.2 37.1192C170.339 37.2107 170.408 37.3205 170.408 37.4486C170.408 37.7781 169.938 38.0893 168.998 38.3822C168.058 38.6659 167.339 38.8078 166.841 38.8078C166.343 38.8078 165.961 38.7483 165.694 38.6293C165.426 38.5012 165.26 38.3731 165.196 38.2449C164.8 37.3846 164.403 35.3436 164.007 32.1219L163.8 30.5706C163.717 29.5363 163.629 28.7538 163.537 28.2229L163.302 28.0582L156.376 28.0307C156.109 29.1474 155.975 30.1267 155.975 30.9687C155.975 31.8016 156.003 32.4102 156.058 32.7946C156.113 33.179 156.293 33.5909 156.597 34.0302C156.91 34.4695 157.334 34.6892 157.869 34.6892ZM181.481 26.7128L181.315 29.2114L181.454 30.3646C181.454 30.7857 181.057 30.9962 180.265 30.9962C178.643 30.9962 177.832 30.3921 177.832 29.184C177.832 28.9003 177.91 28.5067 178.067 28.0033C178.223 27.4908 178.302 27.0514 178.302 26.6853C178.302 26.3101 178.191 25.9852 177.97 25.7106C177.749 25.436 177.426 25.2987 177.002 25.2987C176.587 25.2987 176.228 25.4452 175.924 25.7381C175.629 26.0401 175.449 26.3421 175.385 26.6442L175.246 27.1109C175.117 27.7882 175.053 28.9231 175.053 30.5156C175.053 32.1082 175.076 33.3621 175.122 34.2773C175.159 35.1834 175.2 35.8104 175.246 36.1581C175.292 36.4968 175.315 36.6981 175.315 36.7622C175.315 37.3114 174.974 37.7553 174.292 38.0939C173.601 38.4325 172.915 38.6019 172.233 38.6019C171.541 38.6019 171.196 38.46 171.196 38.1763L171.362 37.1604C171.675 35.2475 171.832 32.7534 171.832 29.6782C171.832 26.603 171.721 24.5162 171.5 23.4179C171.5 23.1525 171.73 23.0198 172.191 23.0198C173.389 23.0198 174.186 23.4271 174.583 24.2416C174.61 24.3332 174.652 24.3789 174.707 24.3789C174.762 24.3789 174.91 24.2782 175.15 24.0769C175.878 23.482 176.739 23.1845 177.735 23.1845C178.352 23.1845 178.974 23.3081 179.601 23.5552C180.855 24.0586 181.481 25.1111 181.481 26.7128ZM182.477 25.2026L182.587 23.8847C182.606 23.6833 182.758 23.5827 183.043 23.5827H184.205L184.08 20.9467V20.8095C184.08 20.3061 184.467 19.8256 185.241 19.3679C186.016 18.9012 186.721 18.6678 187.357 18.6678C187.559 18.6678 187.661 18.7593 187.661 18.9423V18.9698C187.569 19.5647 187.481 21.0932 187.398 23.5552C188.366 23.5552 188.983 23.5323 189.251 23.4865C189.518 23.4408 189.661 23.4179 189.679 23.4179C189.836 23.4179 189.914 23.5506 189.914 23.816C189.914 24.0815 189.794 24.4155 189.555 24.8182C189.306 25.2209 189.039 25.436 188.753 25.4635H187.357C187.338 26.2048 187.329 27.4633 187.329 29.2389C187.329 31.0053 187.343 32.4605 187.37 33.6046C187.407 34.7395 187.449 35.5999 187.495 36.1856C187.541 36.7714 187.592 37.2381 187.647 37.5859C187.702 37.9337 187.744 38.1854 187.771 38.341C187.808 38.4966 187.827 38.5973 187.827 38.6431C187.827 38.8627 187.684 38.9817 187.398 39C186.532 39 185.675 38.881 184.827 38.6431C183.97 38.3959 183.541 37.9795 183.541 37.3937C184.011 33.6961 184.246 29.7285 184.246 25.4909C183.647 25.4909 183.191 25.5138 182.878 25.5596H182.85C182.647 25.5596 182.523 25.4406 182.477 25.2026ZM201.955 23.4454V23.9121H207.831V23.8435C207.849 23.3218 207.858 22.6582 207.858 21.8528C207.858 21.0474 207.849 20.3427 207.831 19.7386C207.812 19.1346 207.789 18.6266 207.762 18.2147C207.743 17.7937 207.716 17.4322 207.679 17.1301C207.651 16.819 207.623 16.581 207.596 16.4163C207.577 16.2515 207.568 16.1051 207.568 15.9769C207.568 15.8397 207.688 15.6841 207.928 15.5102C208.987 14.8054 210.172 14.4531 211.481 14.4531C212.301 14.4531 212.711 14.5949 212.711 14.8786C212.711 14.9061 212.688 15.0297 212.642 15.2493C212.218 17.3361 211.951 20.2237 211.84 23.9121C211.775 27.6006 211.743 29.5775 211.743 29.8429C211.743 33.2477 211.941 35.609 212.338 36.927C212.411 37.1009 212.448 37.2473 212.448 37.3663C212.448 37.4944 212.356 37.6317 212.172 37.7781C211.361 38.309 210.301 38.5744 208.992 38.5744C208.153 38.5744 207.679 38.2907 207.568 37.7232C207.504 37.412 207.471 36.9315 207.471 36.2817C207.471 35.6319 207.508 34.6389 207.582 33.3026C207.656 31.9663 207.716 29.6279 207.762 26.2872H201.955C201.955 31.2936 202.112 34.8082 202.425 36.8309C202.425 37.3526 201.914 37.7873 200.891 38.1351C199.877 38.4737 199.038 38.6431 198.375 38.6431C197.711 38.6431 197.379 38.5424 197.379 38.341C197.379 38.2129 197.412 38.0481 197.476 37.8468C197.9 36.9224 198.112 33.2111 198.112 26.7128V26.2872H196.149C195.974 26.2872 195.886 26.2186 195.886 26.0813C195.886 26.0447 195.933 25.8753 196.025 25.5733C196.108 25.2804 196.31 24.9372 196.633 24.5437C196.956 24.141 197.315 23.9396 197.711 23.9396H198.071C198.071 19.6196 197.817 17.1302 197.31 16.4712L197.186 16.2653C197.048 16.1554 196.979 16.0181 196.979 15.8534C196.979 15.6886 197.103 15.5513 197.352 15.4415C197.684 15.2493 198.273 15.0525 199.121 14.8512C199.969 14.6498 200.739 14.5492 201.43 14.5492C202.112 14.5492 202.453 14.7047 202.453 15.0159V15.112C202.186 17.4002 202.02 20.1779 201.955 23.4454ZM217.854 25.6282C217.273 25.6465 216.858 25.6603 216.609 25.6694C216.351 25.6877 216.222 25.6282 216.222 25.4909C216.222 25.3628 216.291 25.2301 216.43 25.0928C217.84 23.8023 220.227 23.1571 223.591 23.1571C224.743 23.1571 225.651 23.2532 226.314 23.4454L226.646 23.5552C226.913 23.665 227.047 23.784 227.047 23.9121C227.047 24.022 226.969 24.1089 226.812 24.173C226.213 24.3469 225.637 24.626 225.084 25.0104C224.531 25.3948 224.254 25.6648 224.254 25.8204L224.448 26.0538C225.158 26.4474 225.706 27.0743 226.093 27.9347C226.48 28.7858 226.697 29.5409 226.743 30.1999L226.812 31.2295C226.812 33.3987 226.204 35.188 224.987 36.5975C223.771 38.007 222.112 38.7117 220.01 38.7117C218.95 38.7117 218.033 38.5241 217.259 38.1488C216.485 37.7736 215.914 37.348 215.545 36.872C215.176 36.4053 214.881 35.8744 214.66 35.2795C214.402 34.4649 214.273 33.6229 214.273 32.7534C214.273 31.8931 214.421 31.0236 214.715 30.145C215.01 29.2663 215.351 28.6165 215.738 28.1955C216.126 27.7745 216.563 27.4358 217.052 27.1796C217.669 26.8501 218.167 26.6853 218.545 26.6853C218.923 26.6853 219.112 26.7586 219.112 26.905L218.918 27.2345C218.43 27.8111 218.079 28.5616 217.867 29.486C217.655 30.4012 217.549 31.2158 217.549 31.9297C217.549 32.6436 217.637 33.3529 217.812 34.0577C217.996 34.7624 218.199 35.2841 218.42 35.6227C218.642 35.9614 218.895 36.2222 219.181 36.4053C219.596 36.6615 220.038 36.7897 220.508 36.7897C220.969 36.7897 221.42 36.6112 221.863 36.2543C222.305 35.8882 222.628 35.4076 222.83 34.8127C223.227 33.7144 223.425 32.5841 223.425 31.4217C223.425 29.5821 222.955 28.1543 222.015 27.1384C221.075 26.1316 219.688 25.6282 217.854 25.6282ZM240.277 23.3905C239.881 25.7609 239.683 28.7813 239.683 32.4514C239.683 35.1514 239.793 36.927 240.014 37.7781L240.153 38.2175C240.153 38.5012 239.908 38.6431 239.42 38.6431C237.715 38.6431 236.743 38.1717 236.503 37.229C236.475 37.1192 236.425 37.0642 236.351 37.0642C236.268 37.0642 236.194 37.1054 236.13 37.1878C235.448 38.0939 234.388 38.5469 232.95 38.5469C232.148 38.5469 231.319 38.3456 230.462 37.9429C229.927 37.7049 229.494 37.2839 229.162 36.6798C228.83 36.0758 228.664 35.3344 228.664 34.4558L229.162 27.2345C229.162 25.7243 229.01 24.6489 228.706 24.0082C228.595 23.7703 228.54 23.6193 228.54 23.5552C228.54 23.4179 228.595 23.3264 228.706 23.2806C229.056 23.1708 229.508 23.1159 230.061 23.1159C232.208 23.1159 233.282 23.9945 233.282 25.7518C233.282 26.3009 233.056 27.5548 232.604 29.5135C232.144 31.4721 231.913 32.8633 231.913 33.687C231.913 34.5107 232.098 35.1422 232.466 35.5815C232.835 36.0209 233.342 36.2405 233.987 36.2405C234.641 36.2405 235.157 36.0071 235.535 35.5404C235.913 35.0827 236.134 34.6205 236.199 34.1538L236.296 33.4673C236.388 32.6985 236.434 31.3485 236.434 29.4174C236.434 27.4862 236.374 26.2597 236.254 25.7381C236.125 25.2255 236.061 24.9006 236.061 24.7633C236.061 24.2142 236.503 23.784 237.388 23.4728C238.272 23.1525 239.07 22.9923 239.779 22.9923C240.111 22.9923 240.277 23.125 240.277 23.3905ZM251.959 33.536C251.959 34.4787 251.775 35.3024 251.406 36.0071C251.046 36.7119 250.632 37.229 250.162 37.5585C249.701 37.888 249.148 38.1488 248.503 38.341C247.664 38.6064 246.904 38.7392 246.222 38.7392C244.784 38.7392 243.59 38.46 242.641 37.9017C241.683 37.3434 241.203 36.4465 241.203 35.2109C241.203 34.4878 241.406 33.8975 241.812 33.4399C242.429 32.7534 243.166 32.4102 244.024 32.4102C244.291 32.4102 244.424 32.5338 244.424 32.7809C244.424 32.7992 244.374 32.9685 244.272 33.2888C244.18 33.6092 244.134 34.0073 244.134 34.4833C244.134 34.9683 244.328 35.3985 244.715 35.7737C245.102 36.149 245.572 36.3366 246.125 36.3366C246.678 36.3366 247.12 36.2405 247.452 36.0483C247.784 35.8653 248.014 35.6319 248.143 35.3482C248.346 34.9546 248.447 34.5794 248.447 34.2224C248.447 33.5909 248.125 33.0417 247.48 32.575C246.835 32.1173 246.125 31.7558 245.351 31.4904C244.577 31.225 243.871 30.7856 243.236 30.1724C242.59 29.5592 242.268 28.7904 242.268 27.866C242.268 26.2826 242.77 25.0974 243.775 24.3103C244.788 23.514 246.157 23.1159 247.881 23.1159C248.627 23.1159 249.415 23.2211 250.245 23.4316C251.074 23.6421 251.489 23.9945 251.489 24.4887C251.489 24.983 251.406 25.4406 251.24 25.8616C251.074 26.2735 250.871 26.4794 250.632 26.4794C250.503 26.4794 250.415 26.4291 250.369 26.3284C250.323 26.2369 250.245 26.1225 250.134 25.9852C250.023 25.857 249.756 25.6877 249.332 25.4772C248.917 25.2667 248.558 25.1615 248.254 25.1615C247.959 25.1615 247.761 25.166 247.659 25.1752C247.558 25.1935 247.387 25.2301 247.148 25.285C246.908 25.3399 246.687 25.4223 246.484 25.5321C245.977 25.8159 245.724 26.2323 245.724 26.7815C245.724 27.1292 245.802 27.3855 245.959 27.5503C246.106 27.715 246.226 27.8431 246.318 27.9347C246.411 28.017 246.567 28.1223 246.788 28.2504C247.01 28.3694 247.162 28.4518 247.245 28.4975C247.337 28.5342 247.535 28.6257 247.839 28.7721C248.152 28.9186 248.355 29.0101 248.447 29.0467C250.788 30.145 251.959 31.6414 251.959 33.536ZM256.438 29.6782L256.466 30.5019C256.466 30.6301 256.558 30.6941 256.742 30.6941C257.443 30.6301 258.06 30.4516 258.595 30.1587C259.129 29.8567 259.525 29.5226 259.784 29.1565C260.318 28.3419 260.608 27.6372 260.654 27.0423L260.682 26.6442C260.682 25.4635 260.207 24.8732 259.258 24.8732C258.549 24.8732 257.973 25.1798 257.53 25.793C256.802 26.754 256.438 28.0491 256.438 29.6782ZM263.668 34.0577C263.668 34.8905 263.498 35.6227 263.157 36.2543C262.816 36.8766 262.429 37.3388 261.995 37.6409C261.562 37.9337 261.06 38.1671 260.489 38.341C259.761 38.5607 259.065 38.6705 258.401 38.6705C256.539 38.6705 255.166 37.9795 254.281 36.5975C253.397 35.2155 252.954 33.4536 252.954 31.3119C252.954 29.1702 253.503 27.2619 254.599 25.587C255.696 23.9213 257.337 23.0884 259.521 23.0884C261.512 23.0884 262.862 23.7794 263.571 25.1615C263.857 25.6923 264 26.1911 264 26.6579C264 27.1338 263.977 27.5091 263.931 27.7836C263.894 28.0582 263.742 28.4701 263.475 29.0192C263.207 29.5684 262.853 30.0626 262.41 30.5019C261.968 30.9412 261.272 31.3577 260.323 31.7512C259.373 32.1448 258.254 32.4102 256.963 32.5475C256.788 32.5475 256.701 32.6253 256.701 32.7809C256.701 32.9731 256.774 33.2614 256.922 33.6458C257.06 34.0302 257.221 34.3551 257.406 34.6205C257.885 35.2338 258.604 35.5404 259.562 35.5404C260.512 35.5404 261.318 35.2338 261.982 34.6205C262.332 34.291 262.618 33.8838 262.839 33.3987C262.931 33.2248 263.046 33.1378 263.184 33.1378C263.332 33.1378 263.452 33.2568 263.544 33.4948C263.627 33.7419 263.668 33.9295 263.668 34.0577Z" fill="#200000"/>
</svg>
