<svg width="54" height="81" viewBox="0 0 54 81" fill="none" xmlns="http://www.w3.org/2000/svg">
<path d="M53.5 24C53.5 36.925 41.6925 47.5 27 47.5C12.3075 47.5 0.5 36.925 0.5 24C0.5 11.075 12.3075 0.5 27 0.5C41.6925 0.5 53.5 11.075 53.5 24Z" stroke="black"/>
<path d="M26 18.6485C23.0545 18.6485 20.6667 21.0363 20.6667 23.9818C20.6667 26.9273 23.0545 29.3151 26 29.3151C28.9455 29.3151 31.3333 26.9273 31.3333 23.9818C31.3333 21.0363 28.9455 18.6485 26 18.6485ZM25.2929 79.7253C25.6834 80.1158 26.3166 80.1158 26.7071 79.7253L33.0711 73.3613C33.4616 72.9708 33.4616 72.3376 33.0711 71.9471C32.6805 71.5566 32.0474 71.5566 31.6569 71.9471L26 77.6039L20.3431 71.9471C19.9526 71.5566 19.3195 71.5566 18.9289 71.9471C18.5384 72.3376 18.5384 72.9708 18.9289 73.3613L25.2929 79.7253ZM25 23.9818L25 79.0182H27L27 23.9818H25Z" fill="black"/>
</svg>
