<svg width="31" height="27" viewBox="0 0 31 27" fill="none" xmlns="http://www.w3.org/2000/svg">
<path d="M27.4362 3.2088C26.7363 2.50854 25.9053 1.95305 24.9906 1.57406C24.0759 1.19507 23.0955 1 22.1055 1C21.1154 1 20.135 1.19507 19.2204 1.57406C18.3057 1.95305 17.4747 2.50854 16.7747 3.2088L15.3221 4.66139L13.8695 3.2088C12.4557 1.795 10.5382 1.00073 8.53881 1.00073C6.53939 1.00073 4.62187 1.795 3.20807 3.2088C1.79426 4.6226 1 6.54012 1 8.53954C1 10.539 1.79426 12.4565 3.20807 13.8703L4.66066 15.3229L15.3221 25.9844L25.9836 15.3229L27.4362 13.8703C28.1365 13.1704 28.692 12.3393 29.0709 11.4247C29.4499 10.51 29.645 9.52961 29.645 8.53954C29.645 7.54946 29.4499 6.56909 29.0709 5.65442C28.692 4.73976 28.1365 3.90872 27.4362 3.2088V3.2088Z" stroke="#353535" stroke-width="1.8" stroke-linecap="round" stroke-linejoin="round"/>
</svg>
