<svg width="122" height="35" viewBox="0 0 122 35" fill="none" xmlns="http://www.w3.org/2000/svg">
<path d="M7.032 28.336C6.024 28.336 5.064 28 4.152 27.328C3.256 26.64 2.52 25.616 1.944 24.256C1.384 22.88 1.104 21.216 1.104 19.264C1.104 17.312 1.384 15.656 1.944 14.296C2.52 12.92 3.264 11.888 4.176 11.2C5.088 10.512 6.056 10.168 7.08 10.168C8.088 10.168 9.04 10.512 9.936 11.2C10.848 11.888 11.584 12.92 12.144 14.296C12.72 15.656 13.008 17.312 13.008 19.264C13.008 21.216 12.72 22.88 12.144 24.256C11.568 25.616 10.824 26.64 9.912 27.328C9 28 8.04 28.336 7.032 28.336ZM7.08 27.496C8.072 27.496 8.84 26.816 9.384 25.456C9.944 24.096 10.224 22.032 10.224 19.264C10.224 16.496 9.944 14.432 9.384 13.072C8.84 11.696 8.072 11.008 7.08 11.008C6.072 11.008 5.288 11.696 4.728 13.072C4.168 14.432 3.888 16.496 3.888 19.264C3.888 22.032 4.168 24.096 4.728 25.456C5.288 26.816 6.072 27.496 7.08 27.496ZM16.2699 28C16.1579 28 16.1019 27.896 16.1019 27.688C16.1019 27.48 16.1579 27.376 16.2699 27.376H16.6059C18.5259 27.376 19.4859 26.784 19.4859 25.6V14.776C19.4859 14.184 19.4219 13.768 19.2939 13.528C19.1819 13.288 18.9659 13.136 18.6459 13.072C18.3259 13.008 17.7739 12.976 16.9899 12.976H16.3179C16.2059 12.976 16.1499 12.872 16.1499 12.664C16.1499 12.456 16.2059 12.352 16.3179 12.352C18.2859 12.208 20.0219 11.624 21.5259 10.6C21.6379 10.536 21.7419 10.504 21.8379 10.504C21.9179 10.504 21.9819 10.544 22.0299 10.624C22.0939 10.688 22.1259 10.784 22.1259 10.912V25.6C22.1259 26.784 23.0939 27.376 25.0299 27.376H25.3419C25.4539 27.376 25.5099 27.48 25.5099 27.688C25.5099 27.896 25.4539 28 25.3419 28H16.2699Z" fill="black"/>
<path d="M40.3333 17.5C40.3333 18.9728 41.5272 20.1667 43 20.1667C44.4728 20.1667 45.6667 18.9728 45.6667 17.5C45.6667 16.0272 44.4728 14.8333 43 14.8333C41.5272 14.8333 40.3333 16.0272 40.3333 17.5ZM76.3333 17.5C76.3333 18.9728 77.5272 20.1667 79 20.1667C80.4728 20.1667 81.6667 18.9728 81.6667 17.5C81.6667 16.0272 80.4728 14.8333 79 14.8333C77.5272 14.8333 76.3333 16.0272 76.3333 17.5ZM43 18H79V17H43V18Z" fill="black"/>
<path d="M100.84 16.648C101.688 16.648 102.544 16.84 103.408 17.224C104.288 17.608 105.024 18.224 105.616 19.072C106.208 19.92 106.504 21 106.504 22.312C106.504 23.528 106.2 24.592 105.592 25.504C105 26.416 104.224 27.12 103.264 27.616C102.32 28.096 101.328 28.336 100.288 28.336C99.392 28.336 98.536 28.184 97.72 27.88C96.92 27.576 96.272 27.144 95.776 26.584C95.28 26.008 95.032 25.336 95.032 24.568C95.032 24.008 95.184 23.6 95.488 23.344C95.792 23.072 96.128 22.936 96.496 22.936C96.928 22.936 97.296 23.048 97.6 23.272C97.904 23.48 98.056 23.816 98.056 24.28C98.056 24.456 98.024 24.608 97.96 24.736C97.912 24.864 97.84 25.016 97.744 25.192C97.584 25.448 97.504 25.664 97.504 25.84C97.504 26.352 97.728 26.76 98.176 27.064C98.624 27.352 99.2 27.496 99.904 27.496C100.464 27.496 101.024 27.32 101.584 26.968C102.144 26.616 102.608 26.064 102.976 25.312C103.36 24.544 103.552 23.584 103.552 22.432C103.552 20.944 103.224 19.784 102.568 18.952C101.928 18.12 101.088 17.704 100.048 17.704C98.8 17.704 97.688 18.352 96.712 19.648C96.6 19.808 96.472 19.888 96.328 19.888C96.248 19.888 96.16 19.864 96.064 19.816C95.808 19.672 95.696 19.464 95.728 19.192L96.232 10.888C96.248 10.568 96.416 10.408 96.736 10.408H105.04C105.216 10.408 105.344 10.456 105.424 10.552C105.504 10.648 105.528 10.784 105.496 10.96L105.184 12.352C105.12 12.64 104.936 12.784 104.632 12.784H97.456C97.136 12.784 96.968 12.944 96.952 13.264L96.64 17.728C96.624 17.84 96.64 17.928 96.688 17.992C96.752 18.056 96.824 18.088 96.904 18.088C97.032 18.088 97.208 18 97.432 17.824C97.976 17.408 98.52 17.112 99.064 16.936C99.624 16.744 100.216 16.648 100.84 16.648ZM114.387 16.648C115.235 16.648 116.091 16.84 116.955 17.224C117.835 17.608 118.571 18.224 119.163 19.072C119.755 19.92 120.051 21 120.051 22.312C120.051 23.528 119.747 24.592 119.139 25.504C118.547 26.416 117.771 27.12 116.811 27.616C115.867 28.096 114.875 28.336 113.835 28.336C112.939 28.336 112.083 28.184 111.267 27.88C110.467 27.576 109.819 27.144 109.323 26.584C108.827 26.008 108.579 25.336 108.579 24.568C108.579 24.008 108.731 23.6 109.035 23.344C109.339 23.072 109.675 22.936 110.043 22.936C110.475 22.936 110.843 23.048 111.147 23.272C111.451 23.48 111.603 23.816 111.603 24.28C111.603 24.456 111.571 24.608 111.507 24.736C111.459 24.864 111.387 25.016 111.291 25.192C111.131 25.448 111.051 25.664 111.051 25.84C111.051 26.352 111.275 26.76 111.723 27.064C112.171 27.352 112.747 27.496 113.451 27.496C114.011 27.496 114.571 27.32 115.131 26.968C115.691 26.616 116.155 26.064 116.523 25.312C116.907 24.544 117.099 23.584 117.099 22.432C117.099 20.944 116.771 19.784 116.115 18.952C115.475 18.12 114.635 17.704 113.595 17.704C112.347 17.704 111.235 18.352 110.259 19.648C110.147 19.808 110.019 19.888 109.875 19.888C109.795 19.888 109.707 19.864 109.611 19.816C109.355 19.672 109.243 19.464 109.275 19.192L109.779 10.888C109.795 10.568 109.963 10.408 110.283 10.408H118.587C118.763 10.408 118.891 10.456 118.971 10.552C119.051 10.648 119.075 10.784 119.043 10.96L118.731 12.352C118.667 12.64 118.483 12.784 118.179 12.784H111.003C110.683 12.784 110.515 12.944 110.499 13.264L110.187 17.728C110.171 17.84 110.187 17.928 110.235 17.992C110.299 18.056 110.371 18.088 110.451 18.088C110.579 18.088 110.755 18 110.979 17.824C111.523 17.408 112.067 17.112 112.611 16.936C113.171 16.744 113.763 16.648 114.387 16.648Z" fill="black"/>
</svg>
