<svg width="108" height="20" viewBox="0 0 108 20" fill="none" xmlns="http://www.w3.org/2000/svg">
<path d="M10 0L12.8801 6.03582L19.5106 6.90983L14.6602 11.5142L15.8779 18.0902L10 14.9L4.12215 18.0902L5.33982 11.5142L0.489435 6.90983L7.11985 6.03582L10 0Z" fill="#FBB500"/>
<path d="M32 0L34.8801 6.03582L41.5106 6.90983L36.6602 11.5142L37.8779 18.0902L32 14.9L26.1221 18.0902L27.3398 11.5142L22.4894 6.90983L29.1199 6.03582L32 0Z" fill="#FBB500"/>
<path d="M54 0L56.8801 6.03582L63.5106 6.90983L58.6602 11.5142L59.8779 18.0902L54 14.9L48.1221 18.0902L49.3398 11.5142L44.4894 6.90983L51.1199 6.03582L54 0Z" fill="#FBB500"/>
<path d="M76 0L78.8801 6.03582L85.5106 6.90983L80.6602 11.5142L81.8779 18.0902L76 14.9L70.1221 18.0902L71.3398 11.5142L66.4894 6.90983L73.1199 6.03582L76 0Z" fill="#D9D9D9"/>
<path d="M98 0L100.88 6.03582L107.511 6.90983L102.66 11.5142L103.878 18.0902L98 14.9L92.1221 18.0902L93.3398 11.5142L88.4894 6.90983L95.1199 6.03582L98 0Z" fill="#D9D9D9"/>
</svg>
