<svg width="17" height="16" viewBox="0 0 17 16" fill="none" xmlns="http://www.w3.org/2000/svg">
<path d="M0 2C0 1.46957 0.210714 0.960859 0.585786 0.585786C0.960859 0.210714 1.46957 0 2 0H14C14.5304 0 15.0391 0.210714 15.4142 0.585786C15.7893 0.960859 16 1.46957 16 2V5.146C15.6986 4.87615 15.3622 4.64811 15 4.468V2C15 1.73478 14.8946 1.48043 14.7071 1.29289C14.5196 1.10536 14.2652 1 14 1H2C1.73478 1 1.48043 1.10536 1.29289 1.29289C1.10536 1.48043 1 1.73478 1 2V10C1 10.2652 1.10536 10.5196 1.29289 10.7071C1.48043 10.8946 1.73478 11 2 11H9.258C9.334 11.113 9.415 11.223 9.5 11.329V12H2C1.46957 12 0.960859 11.7893 0.585786 11.4142C0.210714 11.0391 0 10.5304 0 10V2ZM16.5 8.5C16.5 9.454 16.119 10.318 15.5 10.95V15C15.5 15.0929 15.4741 15.1839 15.4253 15.2629C15.3765 15.3419 15.3067 15.4057 15.2236 15.4472C15.1406 15.4887 15.0476 15.5063 14.9551 15.498C14.8626 15.4896 14.7743 15.4557 14.7 15.4L13.3 14.35C13.2135 14.2851 13.1082 14.25 13 14.25C12.8918 14.25 12.7865 14.2851 12.7 14.35L11.3 15.4C11.2257 15.4557 11.1374 15.4896 11.0449 15.498C10.9524 15.5063 10.8594 15.4887 10.7764 15.4472C10.6933 15.4057 10.6235 15.3419 10.5747 15.2629C10.5259 15.1839 10.5 15.0929 10.5 15V10.95C10.0983 10.54 9.80352 10.0374 9.64179 9.48662C9.48005 8.93583 9.45628 8.35371 9.57255 7.79157C9.68883 7.22942 9.94159 6.7045 10.3086 6.26307C10.6755 5.82164 11.1454 5.47724 11.6769 5.26024C12.2083 5.04323 12.785 4.96027 13.3561 5.01867C13.9271 5.07707 14.4751 5.27504 14.9516 5.59512C15.4281 5.91521 15.8186 6.34759 16.0886 6.85417C16.3586 7.36074 16.4999 7.92595 16.5 8.5ZM13 12C12.463 12 11.955 11.88 11.5 11.663V13.75L12.743 13.004C12.8207 12.9575 12.9095 12.9329 13 12.9329C13.0905 12.9329 13.1793 12.9575 13.257 13.004L14.5 13.75V11.663C14.0313 11.8856 13.5188 12.0007 13 12ZM13 11C13.663 11 14.2989 10.7366 14.7678 10.2678C15.2366 9.79893 15.5 9.16304 15.5 8.5C15.5 7.83696 15.2366 7.20107 14.7678 6.73223C14.2989 6.26339 13.663 6 13 6C12.337 6 11.7011 6.26339 11.2322 6.73223C10.7634 7.20107 10.5 7.83696 10.5 8.5C10.5 9.16304 10.7634 9.79893 11.2322 10.2678C11.7011 10.7366 12.337 11 13 11ZM3 3.5C3 3.36739 3.05268 3.24021 3.14645 3.14645C3.24021 3.05268 3.36739 3 3.5 3H12.5C12.6326 3 12.7598 3.05268 12.8536 3.14645C12.9473 3.24021 13 3.36739 13 3.5C13 3.63261 12.9473 3.75979 12.8536 3.85355C12.7598 3.94732 12.6326 4 12.5 4H3.5C3.36739 4 3.24021 3.94732 3.14645 3.85355C3.05268 3.75979 3 3.63261 3 3.5ZM3.5 8C3.36739 8 3.24021 8.05268 3.14645 8.14645C3.05268 8.24021 3 8.36739 3 8.5C3 8.63261 3.05268 8.75979 3.14645 8.85355C3.24021 8.94732 3.36739 9 3.5 9H7.5C7.63261 9 7.75979 8.94732 7.85355 8.85355C7.94732 8.75979 8 8.63261 8 8.5C8 8.36739 7.94732 8.24021 7.85355 8.14645C7.75979 8.05268 7.63261 8 7.5 8H3.5Z" fill="#616161"/>
</svg>
