<svg width="18" height="14" viewBox="0 0 18 14" fill="none" xmlns="http://www.w3.org/2000/svg">
<path d="M14.625 3.25V5.75C14.625 5.91576 14.5592 6.07473 14.4419 6.19194C14.3247 6.30915 14.1658 6.375 14 6.375C13.8342 6.375 13.6753 6.30915 13.5581 6.19194C13.4408 6.07473 13.375 5.91576 13.375 5.75V3.875H11.5C11.3342 3.875 11.1753 3.80915 11.0581 3.69194C10.9408 3.57473 10.875 3.41576 10.875 3.25C10.875 3.08424 10.9408 2.92527 11.0581 2.80806C11.1753 2.69085 11.3342 2.625 11.5 2.625H14C14.1658 2.625 14.3247 2.69085 14.4419 2.80806C14.5592 2.92527 14.625 3.08424 14.625 3.25ZM6.5 10.125H4.625V8.25C4.625 8.08424 4.55915 7.92527 4.44194 7.80806C4.32473 7.69085 4.16576 7.625 4 7.625C3.83424 7.625 3.67527 7.69085 3.55806 7.80806C3.44085 7.92527 3.375 8.08424 3.375 8.25V10.75C3.375 10.9158 3.44085 11.0747 3.55806 11.1919C3.67527 11.3092 3.83424 11.375 4 11.375H6.5C6.66576 11.375 6.82473 11.3092 6.94194 11.1919C7.05915 11.0747 7.125 10.9158 7.125 10.75C7.125 10.5842 7.05915 10.4253 6.94194 10.3081C6.82473 10.1908 6.66576 10.125 6.5 10.125ZM17.125 1.375V12.625C17.125 12.9565 16.9933 13.2745 16.7589 13.5089C16.5245 13.7433 16.2065 13.875 15.875 13.875H2.125C1.79348 13.875 1.47554 13.7433 1.24112 13.5089C1.0067 13.2745 0.875 12.9565 0.875 12.625V1.375C0.875 1.04348 1.0067 0.725537 1.24112 0.491116C1.47554 0.256696 1.79348 0.125 2.125 0.125H15.875C16.2065 0.125 16.5245 0.256696 16.7589 0.491116C16.9933 0.725537 17.125 1.04348 17.125 1.375ZM15.875 12.625V1.375H2.125V12.625H15.875Z" fill="#616161"/>
</svg>
