<svg width="18" height="17" viewBox="0 0 18 17" fill="none" xmlns="http://www.w3.org/2000/svg">
<path d="M15.5833 9.08333L10.8333 13.8333H8.91667V11.9167L13.6667 7.16667L15.5833 9.08333ZM18.4167 8.41667C18.4167 8.66667 18.1667 8.91667 17.9167 9.16667L15.8333 11.25L15.0833 10.5L17.25 8.33333L16.75 7.83333L16.1667 8.41667L14.25 6.5L16.0833 4.75C16.25 4.58333 16.5833 4.58333 16.8333 4.75L18 5.91667C18.1667 6.08333 18.1667 6.41667 18 6.66667C17.8333 6.83333 17.6667 7 17.6667 7.16667C17.6667 7.33333 17.8333 7.5 18 7.66667C18.25 7.91667 18.5 8.16667 18.4167 8.41667ZM1.66667 15V1.66667H7.5V5.83333H11.6667V7.08333L13.3333 5.41667V5L8.33333 0H1.66667C0.75 0 0 0.75 0 1.66667V15C0 15.9167 0.75 16.6667 1.66667 16.6667H11.6667C12.5833 16.6667 13.3333 15.9167 13.3333 15H1.66667ZM8.33333 12.5833C8.16667 12.5833 8 12.6667 7.91667 12.6667L7.5 10.8333H6.25L4.5 12.25L5 10H3.75L2.91667 14.1667H4.16667L6.58333 12L7.08333 13.9167H7.91667L8.33333 13.8333V12.5833Z" fill="#616161"/>
</svg>
