<svg width="250" height="50" viewBox="0 0 250 50" fill="none" xmlns="http://www.w3.org/2000/svg">
<path d="M46.6959 21.0449C46.2714 23.5653 43.2543 19.8203 42.6875 21.339C42.1206 22.8578 43.0606 24.9589 42.1101 26.8966C41.7318 26.0379 41.2934 25.2063 40.7974 24.4076C38.5794 20.8177 35.3574 18.0413 31.4798 16.3785C28.931 15.2848 26.219 14.7304 23.4194 14.7304C21.3158 14.7304 19.2617 15.0435 17.2891 15.663C17.2997 15.6443 17.3097 15.6252 17.3204 15.6064C17.4143 15.4452 17.5142 15.2873 17.6117 15.1281C17.6084 15.13 17.6051 15.1308 17.6018 15.1327C19.1498 12.5979 21.3025 10.4208 23.84 8.86467C25.1794 8.03926 26.6171 7.38817 28.1219 6.92434C28.1225 6.92501 28.1234 6.92542 28.1239 6.92609C28.1884 6.90626 28.2534 6.88751 28.3178 6.86776C28.3981 6.84401 28.4785 6.82084 28.5592 6.79801C33.1582 5.46076 37.0796 5.11101 38.2601 6.79801C38.7817 7.54342 38.0915 8.41159 36.4465 7.74067C35.0035 7.15209 33.7237 8.14301 34.1701 8.82126C34.5918 9.46176 35.9713 9.44617 36.8471 9.42392C37.4775 9.40809 38.1015 9.47134 38.7239 10.0341C39.7517 10.9635 37.4589 11.5095 38.2179 12.5177C38.9768 13.5258 44.3318 9.45126 46.3557 12.9798C48.3795 16.5083 40.7055 12.9408 40.8321 15.5001C40.9585 18.0595 43.0668 19.3887 44.3318 18.5155C45.5969 17.6423 47.1205 18.5245 46.6959 21.0449ZM45.2595 7.89709C45.892 6.59484 41.2538 5.08268 40.7057 6.55292C40.0045 8.43359 44.6271 9.19926 45.2595 7.89709Z" fill="#F19932"/>
<path d="M41.5127 29.9437C42.8138 34.3187 41.5067 36.671 40.6528 36.356C39.799 36.0408 40.4736 34.9172 40.4947 34.4342C40.5158 33.9512 39.6093 33.7307 39.4511 34.9277C39.293 36.125 39.6197 37.8892 39.8517 38.4142C40.0835 38.9393 40.305 40.2941 38.6816 40.399C37.0582 40.5041 38.9346 37.5059 38.4497 37.1016C37.9648 36.6972 36.1464 38.5089 36.099 40.4017C36.0516 42.2945 35.3242 43.1295 34.4545 42.7356C33.5849 42.3418 34.581 41.2549 34.5495 40.7982C34.5179 40.3412 30.3119 41.5227 29.2683 45.0512C28.2247 48.5797 25.1045 51.7092 23.0385 48.9367C20.9724 46.1643 26.4539 45.4502 25.8214 44.3162C25.1889 43.1819 22.5105 44.2604 21.3409 43.4482C22.2022 43.0714 23.0366 42.6347 23.8383 42.1407C27.4427 39.9304 30.2298 36.7195 31.8976 32.8552C32.9955 30.316 33.5521 27.6142 33.5521 24.825C33.5521 22.7262 33.237 20.6766 32.613 18.7087C35.4027 20.2639 37.7382 22.4949 39.4368 25.2439C40.3446 26.7059 41.0425 28.2862 41.5127 29.9437ZM29.5594 33.984C27.584 34.6056 25.5266 34.9196 23.4192 34.9196C20.6193 34.9196 17.9073 34.3652 15.3587 33.2715C15.0445 33.1369 14.7363 32.9923 14.4312 32.8428C14.4234 32.839 14.4155 32.8352 14.4077 32.8315C14.3451 32.8006 14.2815 32.7713 14.2192 32.7399C14.2196 32.7384 14.2193 32.7367 14.2197 32.7352C10.8489 31.0419 8.03485 28.4745 6.03798 25.2424C5.60811 24.5502 5.22416 23.8322 4.88246 23.0947C4.82984 22.9814 4.77572 22.8687 4.72537 22.7546C2.76171 26.3232 6.02494 29.9922 5.13951 30.7167C4.63569 31.129 3.81125 28.3224 2.23012 28.8579C0.648983 29.3936 1.53441 30.9372 4.34894 32.4494C7.1634 33.9617 9.29536 37.195 9.16629 37.8892C9.03722 38.5835 6.72073 36.7131 7.22672 38.3933C7.73271 40.0736 11.907 40.0315 13.2985 41.2497C14.6899 42.4677 11.6119 43.7699 9.46149 41.7537C7.31104 39.7374 3.55838 40.5775 5.11852 42.8533C6.67857 45.1292 10.2626 45.1142 18.2841 42.8533C19.9464 42.3847 21.5314 41.6894 22.9987 40.7852C25.7592 39.0924 27.9988 36.7647 29.5594 33.984ZM7.39837 24.406C9.09753 27.156 11.4343 29.3872 14.2255 30.9421C13.6017 28.974 13.2863 26.924 13.2863 24.8249C13.2863 22.0358 13.8429 19.3341 14.9405 16.7947C16.6107 12.9291 19.3978 9.71817 23.0002 7.50925C23.8018 7.01525 24.6361 6.57842 25.4974 6.20183C23.782 5.40967 20.5718 5.60767 21.5521 4.379C22.5325 3.15033 21.7102 2.07925 20.9513 2.58317C20.1922 3.08725 20.4453 3.74883 19.2119 5.45017C17.9786 7.15133 13.2667 8.254 12.9821 6.08858C12.6974 3.92342 14.6266 0 13.2351 0C11.8436 0 10.8949 1.41767 11.4325 5.32425C11.9701 9.23075 10.1043 11.2785 9.66157 10.9635C9.21882 10.6485 10.0095 9.23075 8.93425 9.23075C7.85902 9.23075 7.85902 10.743 8.3334 12.1292C8.80777 13.5153 7.06846 15.2166 6.40437 14.0762C5.74028 12.9359 7.90127 7.98108 5.32254 8.44308C2.7438 8.90525 3.85341 14.072 5.32254 19.7094C5.79289 21.3656 6.49086 22.9446 7.39837 24.406ZM37.2691 44.2952C37.9332 45.6183 39.4512 43.1609 39.0084 42.0267C38.616 41.0216 36.605 42.9719 37.2691 44.2952ZM3.12884 21.7961C3.66988 19.7075 3.03507 17.9542 0.87793 18.6838C-1.27921 19.4134 1.1436 21.251 1.73767 21.7961C2.33167 22.3412 3.00379 22.2788 3.12884 21.7961Z" fill="#F19932"/>
<path d="M71.1319 21.911L71.1581 25.7965L71.0403 31.1715C71.0577 31.2492 71.0883 31.288 71.1319 31.288C71.1755 31.288 71.2061 31.2708 71.2235 31.2362C71.6425 30.6491 72.1618 30.3555 72.7814 30.3555C73.4011 30.3555 73.7109 30.4807 73.7109 30.7311C73.7109 31.5168 73.8637 32.1255 74.1691 32.5573C74.4659 32.9804 74.8935 33.1919 75.4521 33.1919C76.0107 33.1919 76.543 32.8163 77.0492 32.0651C77.5642 31.3226 77.8216 30.3296 77.8216 29.0862C77.8216 28.6718 77.7387 28.1753 77.5729 27.5968C77.2413 26.4311 76.6129 25.6541 75.6877 25.2655C75.0157 24.9979 73.9247 24.864 72.4149 24.864C72.249 24.864 72.1661 24.7475 72.1661 24.5143C72.1661 23.3573 72.3756 22.7572 72.7945 22.714C73.3618 22.714 73.9597 22.5673 74.5881 22.2737C75.8448 21.6952 76.4732 20.5036 76.4732 18.699C76.4732 16.7563 75.343 15.7849 73.0825 15.7849L72.1007 15.8497C71.7254 15.9274 71.5159 16.0828 71.4723 16.3159V16.4066C71.2454 17.2355 71.1319 19.0703 71.1319 21.911ZM66.5106 36.3262L66.5761 35.9895C66.7856 35.6182 66.9645 34.0985 67.1129 31.4305C67.2612 28.7711 67.3354 26.2844 67.3354 23.9704C67.3354 21.665 67.2874 19.8129 67.1914 18.4141C67.0954 17.0153 66.8379 16.0051 66.419 15.3834C66.3317 15.2798 66.2881 15.1546 66.2881 15.0078C66.2881 14.861 66.4146 14.7358 66.6677 14.6322C68.3871 13.9674 70.7217 13.635 73.6716 13.635C74.4048 13.635 75.2034 13.7343 76.0674 13.9329C76.9227 14.1314 77.6296 14.3732 78.1882 14.6581C78.738 14.9517 79.2399 15.4007 79.6937 16.0051C80.1475 16.6009 80.405 17.3132 80.4661 18.1421C80.4661 21.1469 79.2093 22.8781 76.6958 23.3357C76.5648 23.3789 76.4994 23.4264 76.4994 23.4782C76.4994 23.53 76.5518 23.5861 76.6565 23.6466C77.9569 23.8538 79.0479 24.3719 79.9293 25.2008C80.3657 25.5979 80.7628 26.211 81.1207 27.0399C81.4785 27.8688 81.6574 28.8186 81.6574 29.8892C81.6574 31.2794 81.2472 32.5961 80.4268 33.8395C79.7635 34.8583 78.7904 35.5836 77.5075 36.0153C76.8005 36.2657 76.0063 36.391 75.1248 36.391C72.9254 36.391 71.5334 35.6959 70.9486 34.3057C70.9225 34.2453 70.8875 34.2151 70.8439 34.2151L70.7261 34.3446C70.281 35.7952 69.0242 36.5507 66.9558 36.6111C66.659 36.6111 66.5106 36.5162 66.5106 36.3262ZM94.0026 22.0665C93.6273 24.3028 93.4397 27.1521 93.4397 30.6145C93.4397 33.1617 93.5444 34.8368 93.7539 35.6398L93.8848 36.0542C93.8848 36.3219 93.6535 36.4557 93.191 36.4557C91.5764 36.4557 90.6556 36.011 90.4287 35.1217C90.4025 35.0181 90.3545 34.9663 90.2847 34.9663C90.2061 34.9663 90.1363 35.0051 90.0752 35.0828C89.4294 35.9376 88.4257 36.365 87.0642 36.365C86.3049 36.365 85.5194 36.1751 84.7078 35.7952C84.2015 35.5707 83.7913 35.1735 83.4771 34.6036C83.163 34.0338 83.0058 33.3344 83.0058 32.5055L83.4771 25.6929C83.4771 24.2682 83.3331 23.2537 83.0451 22.6493C82.9404 22.4248 82.888 22.2823 82.888 22.2219C82.888 22.0924 82.9404 22.006 83.0451 21.9629C83.3768 21.8592 83.8044 21.8074 84.3281 21.8074C86.3616 21.8074 87.3784 22.6363 87.3784 24.2941C87.3784 24.8122 87.1646 25.9951 86.7369 27.8429C86.3005 29.6906 86.0823 31.0031 86.0823 31.7802C86.0823 32.5573 86.2569 33.153 86.606 33.5675C86.9551 33.9819 87.4351 34.1892 88.046 34.1892C88.6657 34.1892 89.1545 33.969 89.5123 33.5286C89.8701 33.0969 90.0796 32.6609 90.1407 32.2205L90.2323 31.573C90.3196 30.8477 90.3632 29.5741 90.3632 27.7522C90.3632 25.9304 90.3065 24.7733 90.1931 24.2812C90.0709 23.7977 90.0098 23.4911 90.0098 23.3616C90.0098 22.8436 90.4287 22.4377 91.2665 22.1442C92.1044 21.842 92.8593 21.6909 93.5314 21.6909C93.8456 21.6909 94.0026 21.8161 94.0026 22.0665ZM105.248 25.2008L105.091 27.5579L105.222 28.6459C105.222 29.0431 104.847 29.2417 104.096 29.2417C102.56 29.2417 101.792 28.6718 101.792 27.5321C101.792 27.2644 101.866 26.8931 102.015 26.4182C102.163 25.9347 102.237 25.5202 102.237 25.1748C102.237 24.8208 102.132 24.5143 101.923 24.2553C101.714 23.9962 101.408 23.8667 101.007 23.8667C100.614 23.8667 100.273 24.0049 99.9854 24.2812C99.7062 24.5661 99.536 24.8511 99.4749 25.136L99.344 25.5763C99.2218 26.2153 99.1607 27.286 99.1607 28.7883C99.1607 30.2907 99.1825 31.4737 99.2262 32.3371C99.2611 33.1919 99.3003 33.7834 99.344 34.1115C99.3876 34.4309 99.4094 34.6209 99.4094 34.6813C99.4094 35.1994 99.0865 35.6182 98.4407 35.9376C97.7861 36.2571 97.1359 36.4169 96.49 36.4169C95.8355 36.4169 95.5082 36.283 95.5082 36.0153L95.6653 35.0569C95.962 33.2523 96.1104 30.8995 96.1104 27.9983C96.1104 25.0971 96.0057 23.1285 95.7962 22.0924C95.7962 21.842 96.0144 21.7168 96.4508 21.7168C97.5854 21.7168 98.3403 22.101 98.7156 22.8695C98.7417 22.9558 98.781 22.999 98.8334 22.999C98.8857 22.999 99.0254 22.904 99.2523 22.714C99.9418 22.1528 100.758 21.8722 101.7 21.8722C102.285 21.8722 102.874 21.9888 103.468 22.2219C104.655 22.6968 105.248 23.6897 105.248 25.2008ZM113.771 36.0801C114.059 34.6295 114.203 32.5918 114.203 29.9669C114.203 27.3507 114.194 25.8052 114.177 25.3303C114.159 24.8467 114.011 24.4625 113.731 24.1776C113.461 23.884 113.225 23.7156 113.024 23.6725C112.832 23.6379 112.558 23.6207 112.2 23.6207C111.842 23.6207 111.497 23.7804 111.166 24.0999C110.825 24.4193 110.624 24.7431 110.563 25.0712L110.432 25.5763C110.371 26.198 110.341 27.5752 110.341 29.7079C110.341 31.8406 110.389 33.1833 110.485 33.7359C110.581 34.2798 110.629 34.6468 110.629 34.8368C110.629 35.0267 110.546 35.2124 110.38 35.3937C109.664 36.1449 108.656 36.5205 107.356 36.5205C106.893 36.5205 106.662 36.3823 106.662 36.106C107.081 33.6193 107.29 30.4505 107.29 26.5995C107.29 25.1662 107.26 24.2035 107.199 23.7113L107.081 22.714C107.055 22.4896 107.011 22.2392 106.95 21.9629C106.95 21.7211 107.273 21.6002 107.919 21.6002C108.888 21.6002 109.529 21.9499 109.843 22.6493C109.861 22.7356 109.9 22.7788 109.961 22.7788C110.031 22.7788 110.179 22.6968 110.406 22.5327C111.096 21.9888 112.03 21.7168 113.208 21.7168C113.871 21.7168 114.53 21.842 115.185 22.0924C115.83 22.3428 116.28 22.6752 116.533 23.0896C116.55 23.1328 116.581 23.1544 116.625 23.1544C116.668 23.1544 116.734 23.1112 116.821 23.0249C117.694 22.1528 118.833 21.7168 120.238 21.7168C122.106 21.7168 123.384 22.3816 124.074 23.7113C124.327 24.2294 124.453 24.8813 124.453 25.667C124.453 26.4527 124.388 27.5709 124.257 29.0215C124.135 30.4721 124.074 31.5816 124.074 32.35C124.074 33.1185 124.152 33.8136 124.309 34.4352C124.466 35.0569 124.624 35.5016 124.781 35.7693C124.938 36.037 125.016 36.1924 125.016 36.2355C125.016 36.5032 124.724 36.637 124.139 36.637C122.69 36.637 121.682 36.3478 121.115 35.7693C120.556 35.1908 120.277 34.4309 120.277 33.4898C120.277 32.54 120.469 31.2621 120.853 29.6561C121.237 28.0501 121.429 26.8456 121.429 26.0426C121.429 24.4021 120.762 23.5818 119.426 23.5818C118.859 23.5818 118.409 23.7502 118.078 24.0869C117.737 24.415 117.537 24.7431 117.476 25.0712L117.41 25.5763C117.332 26.5261 117.292 27.6745 117.292 29.0215C117.292 30.3684 117.31 31.4218 117.345 32.1817C117.388 32.9329 117.432 33.5243 117.476 33.956C117.519 34.3791 117.541 34.6295 117.541 34.7072C117.541 35.2944 117.174 35.7434 116.441 36.0542C115.708 36.365 114.997 36.5205 114.307 36.5205C113.95 36.5205 113.771 36.3737 113.771 36.0801ZM136.55 26.5736L136.484 30.5498C136.484 33.3041 136.79 34.962 137.401 35.5232C137.479 35.6009 137.519 35.6916 137.519 35.7952C137.519 36.106 136.842 36.2614 135.489 36.2614C134.145 36.2614 133.43 35.8686 133.342 35.0828C133.325 34.9015 133.316 34.5173 133.316 33.9301L133.434 28.9567C133.434 28.8186 133.351 28.7495 133.185 28.7495C132.182 28.7495 131.239 29.0258 130.358 29.5784C129.476 30.1396 129.035 30.8563 129.035 31.7284C129.035 32.186 129.162 32.5702 129.415 32.8811C129.668 33.1919 129.978 33.3473 130.344 33.3473C130.711 33.3473 131.012 33.2739 131.248 33.1271C131.492 32.9804 131.636 32.8983 131.68 32.8811C132.038 32.9242 132.217 33.2912 132.217 33.982C132.217 34.6727 131.889 35.2339 131.235 35.6657C130.589 36.0888 129.908 36.3003 129.192 36.3003C128.485 36.3003 127.875 36.1751 127.36 35.9247C126.845 35.6743 126.474 35.3937 126.247 35.0828C126.011 34.772 125.819 34.4223 125.671 34.0338C125.531 33.5502 125.461 33.1358 125.461 32.7904C125.461 31.3398 125.92 30.1785 126.836 29.3064C127.761 28.4343 128.944 27.8127 130.384 27.4414C132.295 27.0701 133.29 26.7291 133.369 26.4182C133.438 26.1851 133.473 25.8009 133.473 25.2655C133.473 24.1689 132.906 23.6207 131.771 23.6207C131.291 23.6207 130.864 23.7674 130.489 24.061C130.104 24.3632 129.912 24.7431 129.912 25.2008L130.109 25.952C130.065 26.2973 129.686 26.5046 128.97 26.5736L128.63 26.5995C128.001 26.5995 127.504 26.4441 127.137 26.1333C126.771 25.8224 126.587 25.408 126.587 24.8899C126.587 24.5618 126.696 24.1949 126.915 23.789C127.133 23.3832 127.412 23.0551 127.752 22.8047C128.084 22.5543 128.603 22.3341 129.31 22.1442C130.008 21.9456 130.68 21.8463 131.326 21.8463C131.981 21.8463 132.487 21.8679 132.845 21.911C133.194 21.9456 133.678 22.0406 134.298 22.196C134.918 22.3514 135.433 22.6493 135.843 23.0896C136.253 23.5214 136.471 23.9833 136.497 24.4755C136.532 24.959 136.55 25.6584 136.55 26.5736ZM152.286 18.0774C150.636 20.1324 149.445 22.1873 148.712 24.2423H148.738C151.653 24.2423 153.324 24.2466 153.752 24.2553C154.18 24.2639 154.415 24.2467 154.459 24.2035C154.503 24.1603 154.533 24.1085 154.551 24.0481C154.193 21.5009 153.909 19.7654 153.7 18.8415C153.49 17.9176 153.281 17.4557 153.071 17.4557C152.862 17.4557 152.6 17.6629 152.286 18.0774ZM149.497 32.7256L150.178 32.5961C150.387 32.5961 150.492 32.7127 150.492 32.9458C150.492 33.6711 150.348 34.2798 150.06 34.772C149.763 35.2728 149.397 35.6268 148.961 35.834C148.245 36.188 147.638 36.365 147.141 36.365C146.172 36.365 145.448 36.0067 144.968 35.2901C144.488 34.5734 144.248 33.4941 144.248 32.0522C144.248 30.6102 144.645 28.7409 145.439 26.4441H143.619C143.384 26.4441 143.266 26.3319 143.266 26.1074C143.266 25.8742 143.445 25.503 143.802 24.9935C144.16 24.4927 144.54 24.2423 144.941 24.2423H146.355C147.839 20.9613 149.585 18.1292 151.592 15.7461C152.116 15.1244 152.761 14.5459 153.529 14.0106C154.297 13.4752 154.891 13.2075 155.31 13.2075C155.729 13.2075 156.043 13.3932 156.252 13.7645C156.794 14.6366 157.431 17.8183 158.164 23.3098C158.417 25.667 158.853 28.1062 159.473 30.6275C160.084 33.1401 160.651 34.6036 161.175 35.0181C161.306 35.1044 161.371 35.208 161.371 35.3289C161.371 35.6398 160.926 35.9333 160.036 36.2096C159.146 36.4773 158.465 36.6111 157.994 36.6111C157.522 36.6111 157.16 36.555 156.907 36.4428C156.654 36.3219 156.497 36.201 156.436 36.0801C156.06 35.2685 155.685 33.343 155.31 30.3037L155.114 28.8402C155.035 27.8645 154.952 27.1262 154.865 26.6254L154.642 26.47L148.083 26.4441C147.83 27.4975 147.704 28.4214 147.704 29.2157C147.704 30.0015 147.73 30.5757 147.782 30.9383C147.835 31.301 148.005 31.6895 148.293 32.104C148.59 32.5184 148.991 32.7256 149.497 32.7256ZM171.857 25.2008L171.7 27.5579L171.831 28.6459C171.831 29.0431 171.456 29.2417 170.705 29.2417C169.169 29.2417 168.401 28.6718 168.401 27.5321C168.401 27.2644 168.475 26.8931 168.624 26.4182C168.772 25.9347 168.846 25.5202 168.846 25.1748C168.846 24.8208 168.742 24.5143 168.532 24.2553C168.323 23.9962 168.017 23.8667 167.616 23.8667C167.223 23.8667 166.883 24.0049 166.595 24.2812C166.315 24.5661 166.145 24.8511 166.084 25.136L165.953 25.5763C165.831 26.2153 165.77 27.286 165.77 28.7883C165.77 30.2907 165.792 31.4737 165.835 32.3371C165.87 33.1919 165.91 33.7834 165.953 34.1115C165.997 34.4309 166.019 34.6209 166.019 34.6813C166.019 35.1994 165.696 35.6182 165.05 35.9376C164.395 36.2571 163.745 36.4169 163.099 36.4169C162.445 36.4169 162.117 36.283 162.117 36.0153L162.275 35.0569C162.571 33.2523 162.72 30.8995 162.72 27.9983C162.72 25.0971 162.615 23.1285 162.405 22.0924C162.405 21.842 162.624 21.7168 163.06 21.7168C164.195 21.7168 164.95 22.101 165.325 22.8695C165.351 22.9558 165.39 22.999 165.443 22.999C165.495 22.999 165.635 22.904 165.862 22.714C166.551 22.1528 167.367 21.8722 168.31 21.8722C168.894 21.8722 169.484 21.9888 170.077 22.2219C171.264 22.6968 171.857 23.6897 171.857 25.2008ZM172.8 23.7761L172.905 22.5327C172.922 22.3428 173.066 22.2478 173.337 22.2478H174.436L174.319 19.7611V19.6316C174.319 19.1567 174.685 18.7034 175.418 18.2716C176.151 17.8313 176.819 17.6111 177.421 17.6111C177.613 17.6111 177.709 17.6974 177.709 17.8701V17.896C177.622 18.4573 177.539 19.8992 177.461 22.2219C178.377 22.2219 178.962 22.2003 179.215 22.1571C179.468 22.1139 179.603 22.0924 179.621 22.0924C179.769 22.0924 179.843 22.2176 179.843 22.468C179.843 22.7184 179.73 23.0335 179.503 23.4134C179.267 23.7933 179.014 23.9963 178.744 24.0222H177.421C177.404 24.7215 177.395 25.9088 177.395 27.5839C177.395 29.2503 177.408 30.6232 177.434 31.7025C177.469 32.7731 177.509 33.5848 177.552 34.1374C177.596 34.69 177.644 35.1303 177.696 35.4584C177.749 35.7865 177.788 36.024 177.814 36.1708C177.849 36.3176 177.866 36.4125 177.866 36.4557C177.866 36.6629 177.731 36.7752 177.461 36.7925C176.64 36.7925 175.828 36.6802 175.026 36.4557C174.214 36.2226 173.808 35.8297 173.808 35.2771C174.253 31.7888 174.476 28.0458 174.476 24.0481C173.908 24.0481 173.476 24.0697 173.18 24.1128H173.154C172.961 24.1128 172.844 24.0006 172.8 23.7761ZM191.246 22.1183V22.5586H196.81V22.4939C196.827 22.0017 196.836 21.3757 196.836 20.6159C196.836 19.856 196.827 19.1912 196.81 18.6213C196.792 18.0515 196.77 17.5723 196.744 17.1837C196.727 16.7865 196.701 16.4455 196.666 16.1605C196.64 15.8669 196.613 15.6425 196.587 15.487C196.57 15.3316 196.561 15.1935 196.561 15.0726C196.561 14.9431 196.674 14.7963 196.901 14.6322C197.905 13.9674 199.027 13.635 200.266 13.635C201.043 13.635 201.431 13.7688 201.431 14.0364C201.431 14.0624 201.409 14.1789 201.366 14.3861C200.964 16.3548 200.711 19.0789 200.606 22.5586C200.545 26.0383 200.515 27.9033 200.515 28.1537C200.515 31.3657 200.702 33.5934 201.078 34.8368C201.147 35.0008 201.182 35.139 201.182 35.2512C201.182 35.3721 201.095 35.5016 200.92 35.6398C200.152 36.1406 199.149 36.391 197.909 36.391C197.115 36.391 196.666 36.1233 196.561 35.5879C196.5 35.2944 196.469 34.8411 196.469 34.228C196.469 33.615 196.504 32.6782 196.574 31.4175C196.644 30.1569 196.701 27.9508 196.744 24.7993H191.246C191.246 29.5223 191.394 32.8379 191.691 34.7461C191.691 35.2383 191.207 35.6484 190.238 35.9765C189.278 36.296 188.484 36.4557 187.855 36.4557C187.227 36.4557 186.913 36.3607 186.913 36.1708C186.913 36.0499 186.943 35.8945 187.004 35.7045C187.406 34.8324 187.606 31.3312 187.606 25.2008V24.7993H185.747C185.582 24.7993 185.499 24.7345 185.499 24.605C185.499 24.5704 185.542 24.4107 185.63 24.1258C185.708 23.8495 185.9 23.5257 186.206 23.1544C186.511 22.7745 186.852 22.5845 187.227 22.5845H187.567C187.567 18.5091 187.327 16.1605 186.847 15.5388L186.729 15.3446C186.598 15.241 186.533 15.1114 186.533 14.956C186.533 14.8006 186.651 14.6711 186.886 14.5675C187.201 14.3861 187.759 14.2005 188.562 14.0106C189.365 13.8206 190.094 13.7256 190.748 13.7256C191.394 13.7256 191.717 13.8724 191.717 14.166V14.2566C191.464 16.4152 191.307 19.0358 191.246 22.1183ZM206.301 24.1776C205.751 24.1948 205.358 24.2078 205.123 24.2164C204.878 24.2337 204.756 24.1776 204.756 24.0481C204.756 23.9272 204.822 23.802 204.953 23.6725C206.288 22.455 208.548 21.8463 211.734 21.8463C212.825 21.8463 213.685 21.9369 214.313 22.1183L214.627 22.2219C214.88 22.3255 215.007 22.4377 215.007 22.5586C215.007 22.6622 214.933 22.7443 214.784 22.8047C214.217 22.9688 213.671 23.2321 213.148 23.5948C212.624 23.9574 212.362 24.2121 212.362 24.3589L212.546 24.5791C213.218 24.9503 213.737 25.5418 214.104 26.3535C214.47 27.1565 214.675 27.8688 214.719 28.4905L214.784 29.4618C214.784 31.5082 214.208 33.1962 213.056 34.5259C211.904 35.8556 210.333 36.5205 208.343 36.5205C207.34 36.5205 206.471 36.3435 205.738 35.9895C205.005 35.6354 204.464 35.2339 204.115 34.7849C203.766 34.3446 203.486 33.8438 203.277 33.2826C203.033 32.5141 202.91 31.7197 202.91 30.8995C202.91 30.0878 203.05 29.2676 203.329 28.4387C203.609 27.6098 203.931 26.9967 204.298 26.5995C204.665 26.2024 205.079 25.8829 205.542 25.6411C206.126 25.3303 206.598 25.1748 206.956 25.1748C207.313 25.1748 207.492 25.2439 207.492 25.3821L207.309 25.6929C206.846 26.2369 206.515 26.9449 206.314 27.817C206.113 28.6804 206.013 29.4489 206.013 30.1224C206.013 30.7959 206.096 31.465 206.262 32.1299C206.436 32.7947 206.628 33.2869 206.838 33.6063C207.047 33.9258 207.287 34.1719 207.558 34.3446C207.951 34.5864 208.369 34.7072 208.815 34.7072C209.251 34.7072 209.679 34.5389 210.098 34.2021C210.516 33.8568 210.822 33.4034 211.014 32.8422C211.389 31.8061 211.577 30.7397 211.577 29.6432C211.577 27.9076 211.132 26.5607 210.242 25.6023C209.351 24.6525 208.038 24.1776 206.301 24.1776ZM227.535 22.0665C227.16 24.3028 226.972 27.1521 226.972 30.6145C226.972 33.1617 227.077 34.8368 227.287 35.6398L227.417 36.0542C227.417 36.3219 227.186 36.4557 226.724 36.4557C225.109 36.4557 224.188 36.011 223.961 35.1217C223.935 35.0181 223.887 34.9663 223.817 34.9663C223.739 34.9663 223.669 35.0051 223.608 35.0828C222.962 35.9376 221.958 36.365 220.597 36.365C219.838 36.365 219.052 36.1751 218.24 35.7952C217.734 35.5707 217.324 35.1735 217.01 34.6036C216.696 34.0338 216.539 33.3344 216.539 32.5055L217.01 25.6929C217.01 24.2682 216.866 23.2537 216.578 22.6493C216.473 22.4248 216.421 22.2823 216.421 22.2219C216.421 22.0924 216.473 22.006 216.578 21.9629C216.909 21.8592 217.337 21.8074 217.861 21.8074C219.894 21.8074 220.911 22.6363 220.911 24.2941C220.911 24.8122 220.697 25.9951 220.27 27.8429C219.833 29.6906 219.615 31.0031 219.615 31.7802C219.615 32.5573 219.79 33.153 220.139 33.5675C220.488 33.9819 220.968 34.1892 221.579 34.1892C222.198 34.1892 222.687 33.969 223.045 33.5286C223.403 33.0969 223.612 32.6609 223.673 32.2205L223.765 31.573C223.852 30.8477 223.896 29.5741 223.896 27.7522C223.896 25.9304 223.839 24.7733 223.726 24.2812C223.604 23.7977 223.542 23.4911 223.542 23.3616C223.542 22.8436 223.961 22.4377 224.799 22.1442C225.637 21.842 226.392 21.6909 227.064 21.6909C227.378 21.6909 227.535 21.8161 227.535 22.0665ZM238.598 31.6377C238.598 32.5271 238.423 33.3041 238.074 33.969C237.734 34.6338 237.341 35.1217 236.896 35.4325C236.459 35.7434 235.936 35.9895 235.325 36.1708C234.531 36.4212 233.81 36.5464 233.165 36.5464C231.803 36.5464 230.673 36.283 229.774 35.7563C228.866 35.2296 228.412 34.3835 228.412 33.2178C228.412 32.5357 228.604 31.9788 228.988 31.547C229.573 30.8995 230.271 30.5757 231.083 30.5757C231.336 30.5757 231.463 30.6922 231.463 30.9254C231.463 30.9426 231.415 31.1024 231.319 31.4046C231.231 31.7068 231.188 32.0824 231.188 32.5314C231.188 32.989 231.371 33.3948 231.738 33.7488C232.104 34.1028 232.549 34.2798 233.073 34.2798C233.597 34.2798 234.016 34.1892 234.33 34.0079C234.644 33.8352 234.862 33.615 234.984 33.3473C235.176 32.976 235.272 32.622 235.272 32.2853C235.272 31.6895 234.967 31.1714 234.356 30.7311C233.745 30.2994 233.073 29.9583 232.34 29.7079C231.607 29.4575 230.939 29.0431 230.337 28.4646C229.726 27.886 229.42 27.1608 229.42 26.2887C229.42 24.7949 229.896 23.6768 230.847 22.9342C231.807 22.183 233.104 21.8074 234.736 21.8074C235.443 21.8074 236.189 21.9067 236.974 22.1053C237.76 22.3039 238.152 22.6363 238.152 23.1026C238.152 23.5688 238.074 24.0006 237.917 24.3977C237.76 24.7863 237.568 24.9806 237.341 24.9806C237.219 24.9806 237.136 24.9331 237.092 24.8381C237.048 24.7518 236.974 24.6438 236.87 24.5143C236.765 24.3934 236.512 24.2337 236.11 24.0351C235.717 23.8365 235.377 23.7372 235.089 23.7372C234.81 23.7372 234.622 23.7415 234.526 23.7502C234.43 23.7674 234.269 23.802 234.042 23.8538C233.815 23.9056 233.605 23.9833 233.413 24.0869C232.933 24.3546 232.693 24.7475 232.693 25.2655C232.693 25.5936 232.768 25.8354 232.916 25.9908C233.056 26.1462 233.169 26.2671 233.256 26.3535C233.344 26.4312 233.492 26.5305 233.701 26.6513C233.911 26.7636 234.055 26.8413 234.133 26.8845C234.221 26.919 234.408 27.0054 234.696 27.1435C234.993 27.2817 235.185 27.368 235.272 27.4025C237.489 28.4387 238.598 29.8504 238.598 31.6377ZM242.839 27.9983L242.865 28.7754C242.865 28.8963 242.953 28.9567 243.127 28.9567C243.791 28.8963 244.375 28.7279 244.881 28.4516C245.388 28.1667 245.763 27.8515 246.007 27.5061C246.514 26.7377 246.788 26.0728 246.832 25.5116L246.858 25.136C246.858 24.0222 246.409 23.4652 245.51 23.4652C244.838 23.4652 244.292 23.7545 243.873 24.333C243.184 25.2396 242.839 26.4614 242.839 27.9983ZM249.686 32.1299C249.686 32.9156 249.525 33.6064 249.202 34.2021C248.879 34.7893 248.512 35.2253 248.102 35.5102C247.692 35.7865 247.216 36.0067 246.675 36.1708C245.986 36.378 245.327 36.4816 244.698 36.4816C242.935 36.4816 241.635 35.8297 240.797 34.5259C239.959 33.2221 239.54 31.56 239.54 29.5395C239.54 27.5191 240.059 25.7188 241.098 24.1387C242.137 22.5673 243.69 21.7815 245.759 21.7815C247.644 21.7815 248.922 22.4334 249.594 23.7372C249.865 24.238 250 24.7086 250 25.1489C250 25.5979 249.978 25.952 249.935 26.211C249.9 26.47 249.756 26.8586 249.503 27.3766C249.25 27.8947 248.914 28.3609 248.495 28.7754C248.076 29.1898 247.417 29.5827 246.518 29.954C245.619 30.3253 244.559 30.5757 243.337 30.7052C243.171 30.7052 243.088 30.7786 243.088 30.9254C243.088 31.1067 243.158 31.3787 243.297 31.7413C243.428 32.104 243.581 32.4105 243.756 32.6609C244.209 33.2394 244.89 33.5286 245.798 33.5286C246.697 33.5286 247.46 33.2394 248.089 32.6609C248.421 32.35 248.691 31.9658 248.901 31.5082C248.988 31.3441 249.097 31.2621 249.228 31.2621C249.367 31.2621 249.481 31.3744 249.568 31.5989C249.647 31.832 249.686 32.009 249.686 32.1299Z" fill="#200000"/>
</svg>
