<svg width="36" height="36" viewBox="0 0 36 36" fill="none" xmlns="http://www.w3.org/2000/svg">
<path d="M35.9441 15.1525C35.6174 16.9672 33.2949 14.2708 32.8586 15.3642C32.4222 16.4577 33.1458 17.9706 32.4141 19.3657C32.123 18.7474 31.7855 18.1486 31.4037 17.5736C29.6964 14.9889 27.2163 12.9898 24.2314 11.7927C22.2695 11.0052 20.182 10.606 18.0269 10.606C16.4077 10.606 14.8265 10.8315 13.3081 11.2775C13.3163 11.264 13.324 11.2503 13.3323 11.2368C13.4045 11.1207 13.4814 11.007 13.5565 10.8924C13.5539 10.8937 13.5514 10.8943 13.5489 10.8957C14.7404 9.07064 16.3974 7.50308 18.3507 6.3827C19.3817 5.7884 20.4884 5.31962 21.6467 4.98566C21.6472 4.98614 21.6478 4.98644 21.6483 4.98692C21.6979 4.97264 21.7479 4.95914 21.7975 4.94492C21.8594 4.92782 21.9212 4.91114 21.9833 4.8947C25.5234 3.93188 28.5419 3.68006 29.4506 4.8947C29.8522 5.4314 29.3208 6.05648 28.0546 5.57342C26.9438 5.14964 25.9587 5.8631 26.3023 6.35144C26.6269 6.8126 27.6888 6.80138 28.363 6.78536C28.8482 6.77396 29.3285 6.8195 29.8076 7.22468C30.5987 7.89386 28.8339 8.28698 29.4181 9.01286C30.0023 9.73874 34.1243 6.80504 35.6822 9.34562C37.2401 11.8861 31.333 9.31754 31.4304 11.1602C31.5278 13.003 33.1506 13.96 34.1243 13.3313C35.0981 12.7026 36.2709 13.3378 35.9441 15.1525ZM34.8384 5.68604C35.3253 4.74842 31.755 3.65966 31.3331 4.71824C30.7934 6.07232 34.3516 6.6236 34.8384 5.68604Z" fill="#F19932"/>
<path d="M31.9545 21.5595C32.956 24.7095 31.9499 26.4031 31.2926 26.1763C30.6354 25.9494 31.1547 25.1404 31.1709 24.7926C31.1871 24.4448 30.4893 24.2861 30.3676 25.148C30.2459 26.01 30.4974 27.2803 30.6759 27.6583C30.8544 28.0363 31.0249 29.0117 29.7753 29.0873C28.5257 29.1629 29.97 27.0043 29.5968 26.7131C29.2235 26.422 27.8238 27.7264 27.7873 29.0893C27.7508 30.452 27.1909 31.0532 26.5215 30.7696C25.8521 30.4861 26.6188 29.7035 26.5946 29.3747C26.5702 29.0457 23.3327 29.8964 22.5294 32.4369C21.726 34.9774 19.3243 37.2306 17.7339 35.2345C16.1436 33.2383 20.3629 32.7242 19.8761 31.9076C19.3892 31.091 17.3275 31.8675 16.4272 31.2827C17.0902 31.0114 17.7325 30.697 18.3496 30.3413C21.1241 28.7499 23.2694 26.438 24.5533 23.6557C25.3984 21.8275 25.8269 19.8823 25.8269 17.874C25.8269 16.3628 25.5842 14.8871 25.104 13.4702C27.2513 14.59 29.0491 16.1963 30.3566 18.1756C31.0554 19.2283 31.5926 20.366 31.9545 21.5595ZM22.7534 24.4685C21.2328 24.916 19.6492 25.1421 18.027 25.1421C15.8717 25.1421 13.7842 24.7429 11.8224 23.9555C11.5805 23.8586 11.3433 23.7545 11.1085 23.6468C11.1024 23.6441 11.0964 23.6414 11.0904 23.6387C11.0422 23.6164 10.9932 23.5954 10.9453 23.5727C10.9456 23.5717 10.9453 23.5705 10.9456 23.5694C8.35096 22.3502 6.18485 20.5016 4.64775 18.1745C4.31686 17.6762 4.02131 17.1592 3.75829 16.6282C3.71778 16.5466 3.67613 16.4655 3.63736 16.3833C2.12583 18.9527 4.63771 21.5944 3.95615 22.1161C3.56834 22.4129 2.93372 20.3921 1.71664 20.7777C0.499556 21.1634 1.18111 22.2748 3.34761 23.3636C5.51405 24.4524 7.15513 26.7804 7.05578 27.2803C6.95642 27.7801 5.1733 26.4334 5.56279 27.6432C5.95228 28.853 9.16548 28.8227 10.2365 29.6998C11.3076 30.5768 8.93825 31.5143 7.283 30.0627C5.62769 28.6109 2.73907 29.2158 3.93999 30.8544C5.14085 32.4931 7.89966 32.4822 14.0742 30.8544C15.3538 30.517 16.5739 30.0164 17.7033 29.3654C19.8282 28.1465 21.5521 26.4706 22.7534 24.4685ZM5.69491 17.5723C7.00285 19.5523 8.80156 21.1588 10.9502 22.2783C10.4699 20.8613 10.2271 19.3853 10.2271 17.8739C10.2271 15.8658 10.6556 13.9205 11.5005 12.0922C12.7861 9.30894 14.9315 6.99708 17.7044 5.40666C18.3215 5.05098 18.9637 4.73646 19.6267 4.46532C18.3063 3.89496 15.8352 4.03752 16.5898 3.15288C17.3444 2.26824 16.7115 1.49706 16.1273 1.85988C15.543 2.22282 15.7378 2.69916 14.7884 3.92412C13.8391 5.14896 10.2121 5.94288 9.99301 4.38378C9.7739 2.82486 11.2588 0 10.1877 0C9.11668 0 8.38638 1.02072 8.8002 3.83346C9.21403 6.64614 7.77783 8.12052 7.43702 7.89372C7.09621 7.66692 7.70482 6.64614 6.87716 6.64614C6.0495 6.64614 6.0495 7.73496 6.41465 8.733C6.7798 9.73104 5.44096 10.9559 4.92978 10.1349C4.41859 9.31386 6.08202 5.74638 4.09704 6.07902C2.11205 6.41178 2.96617 10.1318 4.09704 14.1908C4.4591 15.3832 4.99636 16.5201 5.69491 17.5723ZM28.688 31.8925C29.1992 32.8452 30.3676 31.0759 30.0268 30.2593C29.7248 29.5355 28.1768 30.9398 28.688 31.8925ZM2.40843 15.6932C2.8249 14.1894 2.33625 12.927 0.675789 13.4524C-0.984676 13.9777 0.880288 15.3007 1.33758 15.6932C1.79481 16.0856 2.31217 16.0408 2.40843 15.6932Z" fill="#F19932"/>
</svg>
