<svg width="54" height="81" viewBox="0 0 54 81" fill="none" xmlns="http://www.w3.org/2000/svg">
<path d="M53.5 24C53.5 36.925 41.6925 47.5 27 47.5C12.3075 47.5 0.5 36.925 0.5 24C0.5 11.075 12.3075 0.5 27 0.5C41.6925 0.5 53.5 11.075 53.5 24Z" stroke="black"/>
<path d="M26 18.6486C23.0545 18.6486 20.6667 21.0364 20.6667 23.9819C20.6667 26.9275 23.0545 29.3153 26 29.3153C28.9455 29.3153 31.3333 26.9275 31.3333 23.9819C31.3333 21.0364 28.9455 18.6486 26 18.6486ZM25.2929 79.7254C25.6834 80.1159 26.3166 80.1159 26.7071 79.7254L33.0711 73.3614C33.4616 72.9709 33.4616 72.3377 33.0711 71.9472C32.6805 71.5567 32.0474 71.5567 31.6569 71.9472L26 77.6041L20.3431 71.9472C19.9526 71.5567 19.3195 71.5567 18.9289 71.9472C18.5384 72.3377 18.5384 72.9709 18.9289 73.3614L25.2929 79.7254ZM25 23.9819L25 79.0183H27L27 23.9819H25Z" fill="black"/>
</svg>
